<svg xmlns="http://www.w3.org/2000/svg" viewBox="0 0 108.31 60.23"><defs><style>.cls-1{fill:#fff;}</style></defs><title>icon-share-white</title><g id="Layer_2" data-name="Layer 2"><g id="Layer_3" data-name="Layer 3"><path class="cls-1" d="M55.21,38.78V48.94A11.31,11.31,0,0,1,43.92,60.23H11.29a10.88,10.88,0,0,1-8-3.31,10.89,10.89,0,0,1-3.31-8V16.32a10.87,10.87,0,0,1,3.31-8,10.86,10.86,0,0,1,8-3.32h10a1.27,1.27,0,0,1,1.26,1.26,1.15,1.15,0,0,1-1,1.25,26.4,26.4,0,0,0-5.22,2.35,1.72,1.72,0,0,1-.63.16H11.29a6,6,0,0,0-4.43,1.84A6,6,0,0,0,5,16.32V48.94a6,6,0,0,0,1.84,4.43,6,6,0,0,0,4.43,1.84H43.92a6.29,6.29,0,0,0,6.27-6.27V40.55a1.24,1.24,0,0,1,.71-1.14A8.28,8.28,0,0,0,53,38a1.17,1.17,0,0,1,1.37-.31A1.19,1.19,0,0,1,55.21,38.78Zm9.29-19.45L49.45,34.39a2.32,2.32,0,0,1-1.77.74,2.68,2.68,0,0,1-1-.19,2.35,2.35,0,0,1-1.53-2.31V25.1H38.9q-12.66,0-17.17,5.14-4.67,5.38-2.9,18.55A1.21,1.21,0,0,1,18,50.12a2.27,2.27,0,0,1-.47.08,1.23,1.23,0,0,1-1-.51c-.26-.37-.53-.77-.82-1.21s-.8-1.34-1.55-2.69-1.39-2.65-1.94-3.9a31.28,31.28,0,0,1-1.51-4.47A18.75,18.75,0,0,1,10,32.63q0-1.92.14-3.57a27.28,27.28,0,0,1,.55-3.53,18.46,18.46,0,0,1,1.1-3.45,18.16,18.16,0,0,1,1.84-3.2A15.31,15.31,0,0,1,16.35,16a20.77,20.77,0,0,1,3.71-2.41,25.6,25.6,0,0,1,4.88-1.9,42.28,42.28,0,0,1,6.26-1.2A64.44,64.44,0,0,1,38.9,10h6.27V2.51A2.35,2.35,0,0,1,46.7.2a2.69,2.69,0,0,1,1-.2,2.42,2.42,0,0,1,1.77.75L64.51,15.81a2.47,2.47,0,0,1,0,3.53Z"/><path class="cls-1" d="M90.5,18.72a4.51,4.51,0,0,1,4.5,4.5v15a4.51,4.51,0,0,1-4.5,4.5H87.57V33.42h3.11l.47-3.62H87.57V27.48a2,2,0,0,1,.37-1.31,1.82,1.82,0,0,1,1.43-.44l1.91,0V22.49a21,21,0,0,0-2.78-.14,4.63,4.63,0,0,0-3.4,1.25,4.71,4.71,0,0,0-1.27,3.53v2.67H80.69v3.62h3.13v9.29H75.51a4.51,4.51,0,0,1-4.5-4.5v-15a4.51,4.51,0,0,1,4.5-4.5Z"/><path class="cls-1" d="M107,1.3A4.25,4.25,0,0,0,103.88,0H89.14A4.26,4.26,0,0,0,86,1.3a4.26,4.26,0,0,0-1.3,3.12V17.25h4l0,0,.33,0h.76a6.35,6.35,0,0,0,3.69-1.36,3,3,0,0,1-1.87-.64,3.27,3.27,0,0,1-1.14-1.6,4.49,4.49,0,0,0,.6.06,3.06,3.06,0,0,0,.78-.12,3.22,3.22,0,0,1-1.89-1.11,3.07,3.07,0,0,1-.77-2.05v0a3.8,3.8,0,0,0,1.54.4,3,3,0,0,1-1.4-2.69,3.21,3.21,0,0,1,.44-1.63,9.14,9.14,0,0,0,2.95,2.38,9.1,9.1,0,0,0,3.72,1,2.93,2.93,0,0,1-.08-.74A3.23,3.23,0,0,1,99.54,5.9a3.06,3.06,0,0,1,2.35,1,6.36,6.36,0,0,0,2.06-.78,3.12,3.12,0,0,1-1.43,1.8,6.75,6.75,0,0,0,1.86-.52,6.27,6.27,0,0,1-1.61,1.68,3.79,3.79,0,0,1,0,.41,9.3,9.3,0,0,1-1.53,5.07,9.72,9.72,0,0,1-1.85,2.11,8.29,8.29,0,0,1-2.58,1.46,9,9,0,0,1-1.61.41h0a4.26,4.26,0,0,1,1.3,3.12v1.92h7.37a4.43,4.43,0,0,0,4.42-4.42V4.42A4.26,4.26,0,0,0,107,1.3Z"/></g></g></svg>