<svg xmlns="http://www.w3.org/2000/svg" viewBox="0 0 80.53 80.53"><defs><style>.cls-1{fill:#fff;}</style></defs><title>icon-search-white</title><g id="Layer_2" data-name="Layer 2"><g id="Layer_3" data-name="Layer 3"><path class="cls-1" d="M73.28,80.53a6.81,6.81,0,0,1-5.13-2.17L52.81,63.07a33.44,33.44,0,0,1-18.55,5.45,33.82,33.82,0,0,1-13.31-2.7A33.53,33.53,0,0,1,2.7,47.58a34.12,34.12,0,0,1,0-26.63A33.53,33.53,0,0,1,20.95,2.7a34.12,34.12,0,0,1,26.63,0A33.53,33.53,0,0,1,65.82,20.95a34.23,34.23,0,0,1-2.75,31.87L78.43,68.18a7.27,7.27,0,0,1-5.15,12.35ZM53.11,59.84,69.94,76.61A4.37,4.37,0,0,0,73.28,78a4.75,4.75,0,0,0,3.38-8.08L59.84,53.12l.59-.86a31.72,31.72,0,0,0,3.08-30.34A31,31,0,0,0,46.6,5,31.62,31.62,0,0,0,21.93,5,31,31,0,0,0,5,21.93,31.62,31.62,0,0,0,5,46.6,31,31,0,0,0,21.92,63.52,31.33,31.33,0,0,0,34.26,66a31,31,0,0,0,18-5.59ZM34.26,56.52A21.53,21.53,0,0,1,18.54,50,21.53,21.53,0,0,1,12,34.27a21.53,21.53,0,0,1,6.53-15.73A21.52,21.52,0,0,1,34.26,12,21.53,21.53,0,0,1,50,18.54a21.53,21.53,0,0,1,6.53,15.73A21.52,21.52,0,0,1,50,50,21.54,21.54,0,0,1,34.26,56.52Zm0-42a19.1,19.1,0,0,0-14,5.79,19.12,19.12,0,0,0-5.8,14,19.11,19.11,0,0,0,5.8,14,19.11,19.11,0,0,0,14,5.8,19.12,19.12,0,0,0,14-5.8,19.11,19.11,0,0,0,5.8-14,18.87,18.87,0,0,0-5.8-14A18.87,18.87,0,0,0,34.26,14.51Z"/></g></g></svg>