<?xml version="1.0" encoding="iso-8859-1"?>
<!-- Generator: Adobe Illustrator 25.0.0, SVG Export Plug-In . SVG Version: 6.00 Build 0)  -->
<svg version="1.1" id="Layer_1" xmlns="http://www.w3.org/2000/svg" xmlns:xlink="http://www.w3.org/1999/xlink" x="0px" y="0px"
	 viewBox="0 0 841.89 595.28" style="enable-background:new 0 0 841.89 595.28;" xml:space="preserve">
<g>
	<g>
		<g>
			<radialGradient id="SVGID_1_" cx="235.3074" cy="451.0766" r="31.6743" gradientUnits="userSpaceOnUse">
				<stop  offset="0.3018" style="stop-color:#F2DC8E"/>
				<stop  offset="0.5785" style="stop-color:#DFB900"/>
				<stop  offset="0.8518" style="stop-color:#B38C13"/>
				<stop  offset="0.9797" style="stop-color:#E0BE09"/>
			</radialGradient>
			<path style="fill:url(#SVGID_1_);" d="M261.66,465.56l-4.807,21.739h-2.931c-0.039-1.548-0.782-2.322-2.228-2.322h-42.739v-2.533
				c3.518-0.035,5.882-0.641,7.094-1.82c1.211-1.178,1.817-3.368,1.817-6.569v-45.641c0-3.166-0.615-5.337-1.847-6.516
				c-1.231-1.178-3.586-1.802-7.064-1.873v-2.533h41.859c2.54,0,3.849-0.879,3.928-2.638h2.755v20.156h-4.28
				c-0.157-9.99-6.84-14.985-20.05-14.985h-4.456c-0.469,3.835-0.704,7.264-0.704,10.289c0,11.713,5.491,17.57,16.474,17.57h5.745
				v3.693l-21.516,0.528v30.339h6.214c13.132,0,20.656-5.628,22.571-16.884H261.66z"/>
			<radialGradient id="SVGID_2_" cx="279.6289" cy="447.6205" r="28.0762" gradientUnits="userSpaceOnUse">
				<stop  offset="0.3018" style="stop-color:#F2DC8E"/>
				<stop  offset="0.5785" style="stop-color:#DFB900"/>
				<stop  offset="0.8518" style="stop-color:#B38C13"/>
				<stop  offset="0.9797" style="stop-color:#E0BE09"/>
			</radialGradient>
			<path style="fill:url(#SVGID_2_);" d="M293.084,484.977h-26.91v-2.533c3.283-0.07,5.608-0.721,6.977-1.953
				c1.368-1.231,2.052-3.324,2.052-6.279v-50.178c0-3.235-1.486-4.854-4.456-4.854c-1.251,0-2.776,0.282-4.573,0.844v-2.533
				l20.461-7.228v2.163c-1.681,0.739-2.521,2.023-2.521,3.852v57.934c0,2.955,0.674,5.048,2.023,6.279
				c1.348,1.232,3.664,1.882,6.947,1.953V484.977z"/>
			<radialGradient id="SVGID_3_" cx="361.0317" cy="449.8364" r="35.5416" gradientUnits="userSpaceOnUse">
				<stop  offset="0.3018" style="stop-color:#F2DC8E"/>
				<stop  offset="0.5785" style="stop-color:#DFB900"/>
				<stop  offset="0.8518" style="stop-color:#B38C13"/>
				<stop  offset="0.9797" style="stop-color:#E0BE09"/>
			</radialGradient>
			<path style="fill:url(#SVGID_3_);" d="M396.97,484.977h-21.047v-2.533h1.348c0.664,0,0.997-0.58,0.997-1.741
				c0-0.351-0.079-0.739-0.234-1.161l-7.035-18.362h-25.62c-2.697,6.824-4.045,11.908-4.045,15.249c0,1.83,0.645,3.289,1.935,4.38
				c1.29,1.091,2.95,1.636,4.983,1.636h3.107v2.533h-26.265v-2.533c4.416-0.211,8.403-4.414,11.96-12.61l24.037-55.138h3.459
				l20.754,53.925c1.445,3.799,2.794,6.648,4.045,8.548c2.266,3.412,4.807,5.171,7.621,5.276V484.977z M369.708,457.962
				l-10.67-28.07l-12.312,28.07H369.708z"/>
			<radialGradient id="SVGID_4_" cx="421.6513" cy="460.0725" r="23.2991" gradientUnits="userSpaceOnUse">
				<stop  offset="0.3018" style="stop-color:#F2DC8E"/>
				<stop  offset="0.5785" style="stop-color:#DFB900"/>
				<stop  offset="0.8518" style="stop-color:#B38C13"/>
				<stop  offset="0.9797" style="stop-color:#E0BE09"/>
			</radialGradient>
			<path style="fill:url(#SVGID_4_);" d="M443.226,452.316h-4.163c-0.039-6.366-2.091-9.55-6.155-9.55
				c-5.042,0-9.049,3.905-12.018,11.714c-2.307,5.945-3.459,11.714-3.459,17.306c0,4.398,0.976,7.317,2.931,8.759
				c1.759,1.267,5.159,1.9,10.201,1.9v2.533h-30.486v-2.533c3.283-0.07,5.608-0.721,6.977-1.953
				c1.368-1.231,2.052-3.324,2.052-6.279v-27.384c0-3.095-1.271-4.643-3.811-4.643c-1.055,0-2.795,0.388-5.218,1.161v-2.533
				l15.419-5.646h2.58v17.148c7.387-11.362,14.226-17.043,20.519-17.043c1.291,0,2.834,0.264,4.632,0.792V452.316z"/>
			<radialGradient id="SVGID_5_" cx="474.1219" cy="460.8376" r="25.88" gradientUnits="userSpaceOnUse">
				<stop  offset="0.3018" style="stop-color:#F2DC8E"/>
				<stop  offset="0.5785" style="stop-color:#DFB900"/>
				<stop  offset="0.8518" style="stop-color:#B38C13"/>
				<stop  offset="0.9797" style="stop-color:#E0BE09"/>
			</radialGradient>
			<path style="fill:url(#SVGID_5_);" d="M500.211,478.646c-5.942,5.242-10.787,7.862-14.539,7.862
				c-3.362,0-5.042-1.689-5.042-5.065v-7.809c-9.302,8.583-16.63,12.875-21.984,12.875c-3.088,0-5.649-1.09-7.681-3.271
				c-1.955-2.075-2.931-4.519-2.931-7.334c0-7.632,10.865-15.864,32.596-24.693v-6.332c0-2.005-0.655-3.623-1.964-4.854
				c-1.31-1.231-3.078-1.846-5.305-1.846c-4.417,0-8.148,2.023-11.197,6.068c-2.503,3.377-4.007,7.247-4.515,11.608h-3.927v-12.663
				c8.988-5.347,17.45-8.02,25.385-8.02c3.79,0,6.478,0.757,8.061,2.269c1.582,1.513,2.374,3.993,2.374,7.44v32.977
				c0,1.583,0.8,2.375,2.404,2.375c1.563,0,4.317-1.618,8.266-4.854V478.646z M481.274,455.482
				c-5.628,1.055-10.728,2.867-15.301,5.435c-6.019,3.377-9.028,7.194-9.028,11.45c0,2.181,0.752,3.923,2.257,5.224
				c1.505,1.302,3.468,1.952,5.892,1.952c5.628,0,9.908-2.919,12.84-8.759C480.082,466.387,481.195,461.286,481.274,455.482z"/>
			<radialGradient id="SVGID_6_" cx="530.4039" cy="449.4144" r="34.5345" gradientUnits="userSpaceOnUse">
				<stop  offset="0.3018" style="stop-color:#F2DC8E"/>
				<stop  offset="0.5785" style="stop-color:#DFB900"/>
				<stop  offset="0.8518" style="stop-color:#B38C13"/>
				<stop  offset="0.9797" style="stop-color:#E0BE09"/>
			</radialGradient>
			<path style="fill:url(#SVGID_6_);" d="M559.952,454.216c0,4.468-1.056,8.9-3.167,13.297c-2.111,4.398-4.983,8.056-8.617,10.975
				c-3.283,2.638-6.566,4.415-9.849,5.329c-2.776,0.774-6.606,1.161-11.491,1.161h-5.394c-3.088,0-5.159,0.088-6.214,0.264
				c-2.345,0.458-3.968,1.478-4.867,3.061h-3.927c2.228-3.623,3.342-7.791,3.342-12.505v-51.972c0-3.095-1.311-4.643-3.929-4.643
				c-1.212,0-2.872,0.405-4.983,1.213v-2.585l19.522-7.281v2.163c-1.095,0.563-1.642,1.495-1.642,2.797v36.143
				c5.511-5.698,9.106-9.215,10.787-10.553c4.846-3.904,9.497-5.857,13.953-5.857c5.394,0,9.595,2.023,12.604,6.068
				C558.661,444.806,559.952,449.116,559.952,454.216z M551.156,459.598c0-4.502-0.879-8.284-2.638-11.344
				c-2.228-3.94-5.608-5.91-10.142-5.91c-6.176,0-11.277,3.219-15.302,9.655c-3.4,5.453-5.1,11.169-5.1,17.148
				c0,2.252,0.253,4.784,0.762,7.598c4.768,2.638,9.849,3.957,15.243,3.957c6.097,0,10.63-2.286,13.601-6.859
				C549.964,470.186,551.156,465.437,551.156,459.598z"/>
			<radialGradient id="SVGID_7_" cx="579.0626" cy="449.0978" r="27.0883" gradientUnits="userSpaceOnUse">
				<stop  offset="0.3018" style="stop-color:#F2DC8E"/>
				<stop  offset="0.5785" style="stop-color:#DFB900"/>
				<stop  offset="0.8518" style="stop-color:#B38C13"/>
				<stop  offset="0.9797" style="stop-color:#E0BE09"/>
			</radialGradient>
			<path style="fill:url(#SVGID_7_);" d="M592.487,484.977h-26.85v-2.533c3.283-0.07,5.598-0.721,6.947-1.953
				c1.348-1.231,2.022-3.324,2.022-6.279v-28.862c0-2.216-1.407-3.324-4.221-3.324c-1.017,0-2.13,0.229-3.341,0.686
				c-0.665,0.247-1.134,0.405-1.407,0.475v-2.691l15.008-5.329h2.872v39.045c0,2.955,0.674,5.048,2.022,6.279
				c1.349,1.232,3.664,1.882,6.947,1.953V484.977z M584.691,418.284c0,1.408-0.548,2.595-1.642,3.562
				c-1.095,0.968-2.424,1.451-3.987,1.451c-1.564,0-2.883-0.483-3.958-1.451c-1.075-0.967-1.613-2.154-1.613-3.562
				c0-1.372,0.528-2.559,1.583-3.561c1.055-1.003,2.345-1.504,3.869-1.504c1.602,0,2.96,0.484,4.075,1.451
				C584.133,415.637,584.691,416.842,584.691,418.284z"/>
			<radialGradient id="SVGID_8_" cx="624.2055" cy="460.8376" r="25.88" gradientUnits="userSpaceOnUse">
				<stop  offset="0.3018" style="stop-color:#F2DC8E"/>
				<stop  offset="0.5785" style="stop-color:#DFB900"/>
				<stop  offset="0.8518" style="stop-color:#B38C13"/>
				<stop  offset="0.9797" style="stop-color:#E0BE09"/>
			</radialGradient>
			<path style="fill:url(#SVGID_8_);" d="M650.294,478.646c-5.942,5.242-10.787,7.862-14.539,7.862
				c-3.362,0-5.042-1.689-5.042-5.065v-7.809c-9.302,8.583-16.63,12.875-21.984,12.875c-3.088,0-5.649-1.09-7.681-3.271
				c-1.955-2.075-2.931-4.519-2.931-7.334c0-7.632,10.865-15.864,32.596-24.693v-6.332c0-2.005-0.655-3.623-1.964-4.854
				c-1.31-1.231-3.078-1.846-5.305-1.846c-4.417,0-8.148,2.023-11.197,6.068c-2.502,3.377-4.008,7.247-4.515,11.608h-3.927v-12.663
				c8.989-5.347,17.45-8.02,25.385-8.02c3.79,0,6.478,0.757,8.061,2.269c1.582,1.513,2.374,3.993,2.374,7.44v32.977
				c0,1.583,0.801,2.375,2.404,2.375c1.563,0,4.317-1.618,8.266-4.854V478.646z M631.357,455.482
				c-5.628,1.055-10.728,2.867-15.301,5.435c-6.019,3.377-9.028,7.194-9.028,11.45c0,2.181,0.752,3.923,2.257,5.224
				c1.505,1.302,3.469,1.952,5.892,1.952c5.628,0,9.908-2.919,12.84-8.759C630.165,466.387,631.28,461.286,631.357,455.482z"/>
		</g>
		<g>
			<radialGradient id="SVGID_9_" cx="218.4999" cy="507.1367" r="12.5057" gradientUnits="userSpaceOnUse">
				<stop  offset="0.3018" style="stop-color:#F2DC8E"/>
				<stop  offset="0.5785" style="stop-color:#DFB900"/>
				<stop  offset="0.8518" style="stop-color:#B38C13"/>
				<stop  offset="0.9797" style="stop-color:#E0BE09"/>
			</radialGradient>
			<path style="fill:url(#SVGID_9_);" d="M228.605,500.96h-1.755c0-2.325-0.772-3.993-2.316-5.002
				c-1.333-0.878-3.356-1.316-6.07-1.316h-1.853c-0.179,1.595-0.268,3.028-0.268,4.301c0,2.647,0.463,4.557,1.39,5.727
				c1.105,1.404,3.047,2.106,5.827,2.106h2.023v1.514l-8.972,0.175v8.645c0,2.253,1.235,3.416,3.706,3.489v1.054h-11.921v-1.054
				c1.447-0.014,2.425-0.271,2.938-0.768c0.511-0.497,0.767-1.404,0.767-2.721v-19.001c0-1.316-0.257-2.216-0.767-2.699
				c-0.513-0.483-1.492-0.738-2.938-0.768v-1.053h18.455c0.374,0,0.601-0.322,0.683-0.966h1.073V500.96z"/>
			<radialGradient id="SVGID_10_" cx="240.4291" cy="511.6347" r="10.9122" gradientUnits="userSpaceOnUse">
				<stop  offset="0.3018" style="stop-color:#F2DC8E"/>
				<stop  offset="0.5785" style="stop-color:#DFB900"/>
				<stop  offset="0.8518" style="stop-color:#B38C13"/>
				<stop  offset="0.9797" style="stop-color:#E0BE09"/>
			</radialGradient>
			<path style="fill:url(#SVGID_10_);" d="M251.595,510.505c0,3.13-1.178,5.859-3.535,8.184c-2.422,2.399-5.355,3.598-8.801,3.598
				c-3.104,0-5.567-0.9-7.387-2.699c-1.739-1.726-2.609-4-2.609-6.824c0-3.086,1.162-5.8,3.486-8.14
				c2.422-2.428,5.323-3.642,8.703-3.642c3.137,0,5.623,0.885,7.46,2.655C250.701,505.378,251.595,507.667,251.595,510.505z
				 M248.279,512.94c0-1.755-0.431-3.452-1.292-5.09c-0.894-1.712-2.121-3.043-3.681-3.994c-1.3-0.775-2.609-1.163-3.925-1.163
				c-2.259,0-3.998,0.76-5.217,2.282c-1.073,1.346-1.609,3.072-1.609,5.178c0,2.472,0.837,4.732,2.511,6.78
				c1.82,2.253,4.055,3.379,6.704,3.379c2.064,0,3.698-0.79,4.9-2.369C247.743,516.538,248.279,514.871,248.279,512.94z"/>
			<radialGradient id="SVGID_11_" cx="262.9068" cy="511.2949" r="9.6887" gradientUnits="userSpaceOnUse">
				<stop  offset="0.3018" style="stop-color:#F2DC8E"/>
				<stop  offset="0.5785" style="stop-color:#DFB900"/>
				<stop  offset="0.8518" style="stop-color:#B38C13"/>
				<stop  offset="0.9797" style="stop-color:#E0BE09"/>
			</radialGradient>
			<path style="fill:url(#SVGID_11_);" d="M271.878,508.07h-1.731c-0.016-2.647-0.87-3.971-2.56-3.971
				c-2.097,0-3.763,1.624-4.998,4.871c-0.959,2.472-1.438,4.871-1.438,7.197c0,1.828,0.406,3.043,1.219,3.642
				c0.731,0.526,2.145,0.789,4.242,0.789v1.054h-12.677v-1.054c1.365-0.029,2.332-0.299,2.901-0.811s0.853-1.383,0.853-2.611
				v-11.388c0-1.287-0.528-1.931-1.585-1.931c-0.439,0-1.162,0.161-2.17,0.483v-1.054l6.412-2.347h1.073v7.131
				c3.072-4.725,5.916-7.087,8.533-7.087c0.536,0,1.178,0.11,1.926,0.329V508.07z"/>
			<radialGradient id="SVGID_12_" cx="296.3308" cy="507.6194" r="12.295" gradientUnits="userSpaceOnUse">
				<stop  offset="0.3018" style="stop-color:#F2DC8E"/>
				<stop  offset="0.5785" style="stop-color:#DFB900"/>
				<stop  offset="0.8518" style="stop-color:#B38C13"/>
				<stop  offset="0.9797" style="stop-color:#E0BE09"/>
			</radialGradient>
			<path style="fill:url(#SVGID_12_);" d="M305.668,513.467c0,2.458-1.26,4.572-3.779,6.341c-2.34,1.653-4.916,2.479-7.728,2.479
				c-2.129,0-4.518-0.461-7.168-1.382v-7.899h1.731c0,2.018,0.634,3.789,1.902,5.309c1.382,1.668,3.161,2.501,5.339,2.501
				c1.723,0,3.129-0.457,4.218-1.371c1.089-0.914,1.633-2.14,1.633-3.675c0-1.594-0.821-3.086-2.462-4.476
				c-0.666-0.556-2.235-1.572-4.705-3.05c-2.08-1.243-3.624-2.252-4.632-3.028c-0.683-0.527-1.243-1.214-1.682-2.063
				c-0.39-0.731-0.585-1.499-0.585-2.304c0-2.296,1.186-4.227,3.559-5.792c2.145-1.404,4.543-2.107,7.192-2.107
				c1.447,0,3.372,0.373,5.778,1.119v6.889h-1.78c-0.114-1.74-0.691-3.225-1.731-4.454c-1.154-1.375-2.657-2.062-4.51-2.062
				c-1.349,0-2.479,0.366-3.389,1.097c-0.926,0.775-1.39,1.763-1.39,2.962c0,1.492,0.943,2.999,2.828,4.52
				c0.699,0.57,2.324,1.624,4.876,3.159c2.243,1.346,3.706,2.333,4.388,2.962C304.969,510.417,305.668,511.858,305.668,513.467z"/>
			<radialGradient id="SVGID_13_" cx="320.6491" cy="511.6786" r="11.8311" gradientUnits="userSpaceOnUse">
				<stop  offset="0.3018" style="stop-color:#F2DC8E"/>
				<stop  offset="0.5785" style="stop-color:#DFB900"/>
				<stop  offset="0.8518" style="stop-color:#B38C13"/>
				<stop  offset="0.9797" style="stop-color:#E0BE09"/>
			</radialGradient>
			<path style="fill:url(#SVGID_13_);" d="M333.534,519.939l-6.729,2.414h-1.195v-7.284c-1.772,2.165-3.21,3.716-4.315,4.651
				c-1.999,1.712-3.958,2.567-5.875,2.567c-2.682,0-4.023-1.711-4.023-5.134v-12.002c0-1.272-0.756-1.909-2.267-1.909
				c-0.325,0-0.78,0.044-1.365,0.131v-1.031l8.362-1.339v0.856c-0.683,0.176-1.024,0.68-1.024,1.514v13.582
				c0,1.916,0.805,2.874,2.414,2.874c2.47,0,4.559-1.638,6.265-4.915c1.398-2.706,2.097-5.309,2.097-7.811
				c0-2.603-0.87-3.905-2.609-3.905c-0.309,0-0.772,0.059-1.39,0.175v-1.031l8.484-1.339v0.856
				c-0.715,0.103-1.073,0.607-1.073,1.514v14.109c0,1.36,0.561,2.04,1.682,2.04c0.666,0,1.52-0.219,2.56-0.658V519.939z"/>
			<radialGradient id="SVGID_14_" cx="347.7345" cy="515.9574" r="13.7157" gradientUnits="userSpaceOnUse">
				<stop  offset="0.3018" style="stop-color:#F2DC8E"/>
				<stop  offset="0.5785" style="stop-color:#DFB900"/>
				<stop  offset="0.8518" style="stop-color:#B38C13"/>
				<stop  offset="0.9797" style="stop-color:#E0BE09"/>
			</radialGradient>
			<path style="fill:url(#SVGID_14_);" d="M360.009,509.078c0,3.204-1.154,6.151-3.462,8.843c-2.487,2.911-5.461,4.366-8.923,4.366
				c-1.447,0-3.047-0.344-4.803-1.031v5.178c0,1.243,0.284,2.129,0.853,2.655c0.569,0.526,1.544,0.797,2.926,0.812v1.075H335.46
				v-1.075c1.365-0.015,2.324-0.289,2.877-0.823c0.553-0.534,0.829-1.415,0.829-2.644v-20.976c0-1.097-0.479-1.646-1.438-1.646
				c-0.341,0-1.097,0.19-2.267,0.571v-1.097l6.265-2.304h1.097v7.131c1.772-2.194,3.186-3.737,4.242-4.63
				c1.967-1.697,3.901-2.545,5.802-2.545c2.259,0,4.055,0.878,5.388,2.633C359.424,505.122,360.009,506.958,360.009,509.078z
				 M356.328,511.075c0-1.887-0.358-3.518-1.073-4.893c-0.943-1.814-2.34-2.721-4.193-2.721c-2.584,0-4.721,1.528-6.412,4.586
				c-1.398,2.531-2.097,5.076-2.097,7.635c0,0.688,0.089,1.61,0.268,2.765c2.275,1.668,4.291,2.501,6.046,2.501
				c2.438,0,4.356-1.155,5.754-3.466C355.759,515.581,356.328,513.445,356.328,511.075z"/>
			<radialGradient id="SVGID_15_" cx="374.2592" cy="515.9574" r="13.7157" gradientUnits="userSpaceOnUse">
				<stop  offset="0.3018" style="stop-color:#F2DC8E"/>
				<stop  offset="0.5785" style="stop-color:#DFB900"/>
				<stop  offset="0.8518" style="stop-color:#B38C13"/>
				<stop  offset="0.9797" style="stop-color:#E0BE09"/>
			</radialGradient>
			<path style="fill:url(#SVGID_15_);" d="M386.534,509.078c0,3.204-1.154,6.151-3.462,8.843c-2.487,2.911-5.461,4.366-8.923,4.366
				c-1.447,0-3.047-0.344-4.803-1.031v5.178c0,1.243,0.284,2.129,0.853,2.655c0.569,0.526,1.544,0.797,2.926,0.812v1.075h-11.141
				v-1.075c1.365-0.015,2.324-0.289,2.877-0.823c0.553-0.534,0.829-1.415,0.829-2.644v-20.976c0-1.097-0.479-1.646-1.438-1.646
				c-0.341,0-1.097,0.19-2.267,0.571v-1.097l6.265-2.304h1.097v7.131c1.772-2.194,3.186-3.737,4.242-4.63
				c1.967-1.697,3.901-2.545,5.802-2.545c2.259,0,4.055,0.878,5.388,2.633C385.949,505.122,386.534,506.958,386.534,509.078z
				 M382.853,511.075c0-1.887-0.358-3.518-1.073-4.893c-0.943-1.814-2.34-2.721-4.193-2.721c-2.584,0-4.721,1.528-6.412,4.586
				c-1.398,2.531-2.097,5.076-2.097,7.635c0,0.688,0.089,1.61,0.268,2.765c2.275,1.668,4.291,2.501,6.046,2.501
				c2.438,0,4.356-1.155,5.754-3.466C382.284,515.581,382.853,513.445,382.853,511.075z"/>
			<radialGradient id="SVGID_16_" cx="394.6646" cy="506.1166" r="11.6753" gradientUnits="userSpaceOnUse">
				<stop  offset="0.3018" style="stop-color:#F2DC8E"/>
				<stop  offset="0.5785" style="stop-color:#DFB900"/>
				<stop  offset="0.8518" style="stop-color:#B38C13"/>
				<stop  offset="0.9797" style="stop-color:#E0BE09"/>
			</radialGradient>
			<path style="fill:url(#SVGID_16_);" d="M400.26,521.651h-11.19v-1.054c1.365-0.029,2.332-0.299,2.901-0.811
				s0.853-1.383,0.853-2.611v-20.866c0-1.346-0.618-2.019-1.853-2.019c-0.52,0-1.154,0.117-1.902,0.351v-1.053l8.508-3.006v0.9
				c-0.699,0.307-1.048,0.841-1.048,1.601v24.092c0,1.228,0.28,2.099,0.842,2.611c0.56,0.512,1.523,0.782,2.888,0.811V521.651z"/>
			<radialGradient id="SVGID_17_" cx="408.183" cy="506.731" r="11.2645" gradientUnits="userSpaceOnUse">
				<stop  offset="0.3018" style="stop-color:#F2DC8E"/>
				<stop  offset="0.5785" style="stop-color:#DFB900"/>
				<stop  offset="0.8518" style="stop-color:#B38C13"/>
				<stop  offset="0.9797" style="stop-color:#E0BE09"/>
			</radialGradient>
			<path style="fill:url(#SVGID_17_);" d="M413.766,521.651H402.6v-1.054c1.365-0.029,2.328-0.299,2.89-0.811
				c0.56-0.512,0.84-1.383,0.84-2.611v-12.002c0-0.922-0.585-1.382-1.755-1.382c-0.423,0-0.886,0.095-1.39,0.285
				c-0.276,0.103-0.471,0.168-0.585,0.197v-1.119l6.241-2.216h1.195v16.237c0,1.228,0.281,2.099,0.841,2.611
				c0.562,0.512,1.524,0.782,2.89,0.811V521.651z M410.523,493.917c0,0.585-0.228,1.078-0.683,1.481s-1.008,0.604-1.658,0.604
				s-1.199-0.201-1.646-0.604c-0.447-0.402-0.67-0.896-0.67-1.481c0-0.571,0.219-1.065,0.658-1.481
				c0.439-0.417,0.975-0.625,1.609-0.625c0.666,0,1.231,0.201,1.695,0.603C410.291,492.817,410.523,493.318,410.523,493.917z"/>
			<radialGradient id="SVGID_18_" cx="425.6629" cy="511.6347" r="10.2822" gradientUnits="userSpaceOnUse">
				<stop  offset="0.3018" style="stop-color:#F2DC8E"/>
				<stop  offset="0.5785" style="stop-color:#DFB900"/>
				<stop  offset="0.8518" style="stop-color:#B38C13"/>
				<stop  offset="0.9797" style="stop-color:#E0BE09"/>
			</radialGradient>
			<path style="fill:url(#SVGID_18_);" d="M435.561,516.144c-3.624,4.096-7.159,6.144-10.605,6.144
				c-2.633,0-4.851-1.031-6.656-3.094c-1.69-1.901-2.535-4.066-2.535-6.495c0-2.896,1.024-5.529,3.072-7.899
				c2.21-2.545,4.884-3.818,8.021-3.818c2.405,0,4.348,0.79,5.827,2.37c1.349,1.477,2.064,3.328,2.145,5.551h-15.725
				c-0.033,0.571-0.049,0.987-0.049,1.251c0,2.34,0.658,4.381,1.975,6.122c1.495,1.975,3.486,2.962,5.973,2.962
				c2.796,0,5.648-1.514,8.557-4.542V516.144z M430.831,507.806c-0.179-1.506-0.699-2.757-1.56-3.752
				c-1.008-1.126-2.308-1.689-3.901-1.689c-1.577,0-2.942,0.563-4.096,1.689c-1.056,1.039-1.707,2.289-1.95,3.752H430.831z"/>
			<radialGradient id="SVGID_19_" cx="445.9952" cy="511.613" r="9.2085" gradientUnits="userSpaceOnUse">
				<stop  offset="0.3018" style="stop-color:#F2DC8E"/>
				<stop  offset="0.5785" style="stop-color:#DFB900"/>
				<stop  offset="0.8518" style="stop-color:#B38C13"/>
				<stop  offset="0.9797" style="stop-color:#E0BE09"/>
			</radialGradient>
			<path style="fill:url(#SVGID_19_);" d="M453.455,515.508c0,1.946-0.967,3.584-2.901,4.915c-1.772,1.243-3.771,1.865-5.997,1.865
				c-1.739,0-3.746-0.439-6.022-1.316v-6.078h1.658c0.114,1.653,0.626,3.028,1.536,4.125c1.04,1.258,2.43,1.887,4.169,1.887
				c1.219,0,2.235-0.337,3.047-1.009c0.813-0.673,1.219-1.55,1.219-2.633c0-1.083-0.496-2.055-1.487-2.919
				c-0.455-0.395-1.471-1.038-3.047-1.931c-1.967-1.112-3.007-1.704-3.121-1.777c-1.316-0.834-2.181-1.579-2.597-2.238
				c-0.413-0.658-0.621-1.324-0.621-1.997c0-1.712,0.886-3.086,2.657-4.125c1.544-0.892,3.316-1.338,5.315-1.338
				c1.479,0,3.072,0.293,4.778,0.878v5.748h-1.755c-0.016-1.404-0.439-2.618-1.268-3.642c-0.943-1.155-2.162-1.733-3.657-1.733
				c-0.845,0-1.541,0.245-2.085,0.735c-0.544,0.49-0.816,1.115-0.816,1.875c0,0.922,0.504,1.792,1.512,2.611
				c0.439,0.366,1.373,0.951,2.804,1.755c2.617,1.477,4.055,2.318,4.315,2.523C452.667,512.846,453.455,514.118,453.455,515.508z"/>
			<radialGradient id="SVGID_20_" cx="483.8806" cy="507.6194" r="14.9304" gradientUnits="userSpaceOnUse">
				<stop  offset="0.3018" style="stop-color:#F2DC8E"/>
				<stop  offset="0.5785" style="stop-color:#DFB900"/>
				<stop  offset="0.8518" style="stop-color:#B38C13"/>
				<stop  offset="0.9797" style="stop-color:#E0BE09"/>
			</radialGradient>
			<path style="fill:url(#SVGID_20_);" d="M499.069,515.463c-2.665,4.55-4.835,6.824-6.509,6.824c-1.918,0-4.697-2.033-8.338-6.099
				c-1.674,1.902-2.974,3.225-3.901,3.971c-1.755,1.419-3.486,2.129-5.193,2.129c-1.788,0-3.316-0.644-4.583-1.931
				c-1.235-1.229-1.853-2.663-1.853-4.301c0-2.94,2.714-6.275,8.143-10.005c-1.772-3.013-2.657-5.368-2.657-7.065
				c0-1.96,1.162-3.503,3.486-4.629c1.918-0.936,4.071-1.405,6.461-1.405c1.463,0,2.698,0.286,3.706,0.856
				c1.203,0.687,1.804,1.646,1.804,2.874c0,1.185-0.658,2.326-1.975,3.423c-0.618,0.513-1.828,1.28-3.633,2.304
				c-1.203,0.688-2.21,1.294-3.023,1.822c2.308,3.35,4.039,5.807,5.193,7.372c1.512-2.106,2.487-4.564,2.926-7.372h8.728v1.119
				c-4.031,0-7.639,2.407-10.824,7.219c3.283,3.964,5.664,5.946,7.143,5.946c1.008,0,2.3-1.163,3.876-3.489L499.069,515.463z
				 M483.539,515.398c-2.698-3.277-4.77-6.1-6.217-8.469c-2.665,2.487-3.998,4.908-3.998,7.263c0,1.272,0.358,2.362,1.073,3.269
				c0.796,1.024,1.877,1.536,3.242,1.536C479.427,518.996,481.394,517.797,483.539,515.398z M485.587,496.77
				c0-0.819-0.313-1.463-0.939-1.931c-0.626-0.468-1.401-0.702-2.328-0.702c-1.186,0-2.142,0.351-2.864,1.053
				c-0.724,0.702-1.085,1.595-1.085,2.677c0,1.228,0.707,3.05,2.121,5.463c1.674-1.39,2.763-2.355,3.267-2.896
				C484.978,499.117,485.587,497.896,485.587,496.77z"/>
			<radialGradient id="SVGID_21_" cx="518.5845" cy="507.6197" r="10.7799" gradientUnits="userSpaceOnUse">
				<stop  offset="0.3018" style="stop-color:#F2DC8E"/>
				<stop  offset="0.5785" style="stop-color:#DFB900"/>
				<stop  offset="0.8518" style="stop-color:#B38C13"/>
				<stop  offset="0.9797" style="stop-color:#E0BE09"/>
			</radialGradient>
			<path style="fill:url(#SVGID_21_);" d="M524.545,521.651h-11.922v-1.054c1.447-0.014,2.425-0.271,2.938-0.768
				c0.511-0.497,0.767-1.404,0.767-2.721v-19.001c0-1.316-0.257-2.216-0.767-2.699c-0.513-0.483-1.492-0.738-2.938-0.768v-1.053
				h11.922v1.053c-1.463,0.03-2.446,0.285-2.95,0.768s-0.756,1.382-0.756,2.699v19.001c0,2.253,1.235,3.416,3.706,3.489V521.651z"/>
			<radialGradient id="SVGID_22_" cx="546.1575" cy="511.2949" r="15.2732" gradientUnits="userSpaceOnUse">
				<stop  offset="0.3018" style="stop-color:#F2DC8E"/>
				<stop  offset="0.5785" style="stop-color:#DFB900"/>
				<stop  offset="0.8518" style="stop-color:#B38C13"/>
				<stop  offset="0.9797" style="stop-color:#E0BE09"/>
			</radialGradient>
			<path style="fill:url(#SVGID_22_);" d="M565.112,521.651h-8.484v-1.054c0.699-0.014,1.048-0.358,1.048-1.031v-12.573
				c0-2.355-0.861-3.532-2.584-3.532c-2.34,0-4.25,1.602-5.729,4.805c-1.154,2.531-1.731,5.024-1.731,7.482
				c0,1.595,0.228,2.743,0.683,3.444c0.601,0.907,1.707,1.375,3.316,1.404v1.054h-8.411v-1.054c0.683-0.029,1.024-0.299,1.024-0.811
				v-13.494c0-0.746-0.195-1.375-0.585-1.887c-0.455-0.6-1.073-0.9-1.853-0.9c-2.405,0-4.339,1.602-5.802,4.805
				c-1.138,2.502-1.707,5.011-1.707,7.526c0,1.579,0.219,2.714,0.658,3.401c0.601,0.907,1.698,1.36,3.291,1.36v1.054h-11.044v-1.054
				c1.349-0.029,2.295-0.303,2.84-0.823c0.544-0.519,0.817-1.386,0.817-2.6v-11.498c0-1.214-0.528-1.821-1.585-1.821
				c-0.52,0-1.211,0.161-2.072,0.483v-1.097l6.217-2.238h1.146v6.67c1.755-2.106,3.08-3.547,3.974-4.322
				c1.853-1.595,3.665-2.392,5.437-2.392c2.649,0,3.974,1.704,3.974,5.113c0,0.38-0.008,0.841-0.024,1.382
				c1.837-2.077,3.186-3.474,4.047-4.191c1.869-1.55,3.673-2.325,5.412-2.325c1.235,0,2.219,0.388,2.95,1.163
				c0.699,0.717,1.048,1.646,1.048,2.787v12.287c0,1.228,0.281,2.099,0.841,2.611c0.562,0.512,1.524,0.782,2.89,0.811V521.651z"/>
			<radialGradient id="SVGID_23_" cx="579.1427" cy="515.9574" r="13.7157" gradientUnits="userSpaceOnUse">
				<stop  offset="0.3018" style="stop-color:#F2DC8E"/>
				<stop  offset="0.5785" style="stop-color:#DFB900"/>
				<stop  offset="0.8518" style="stop-color:#B38C13"/>
				<stop  offset="0.9797" style="stop-color:#E0BE09"/>
			</radialGradient>
			<path style="fill:url(#SVGID_23_);" d="M591.418,509.078c0,3.204-1.154,6.151-3.462,8.843c-2.487,2.911-5.461,4.366-8.923,4.366
				c-1.446,0-3.047-0.344-4.803-1.031v5.178c0,1.243,0.284,2.129,0.853,2.655c0.569,0.526,1.544,0.797,2.925,0.812v1.075h-11.141
				v-1.075c1.365-0.015,2.324-0.289,2.877-0.823c0.553-0.534,0.829-1.415,0.829-2.644v-20.976c0-1.097-0.479-1.646-1.438-1.646
				c-0.341,0-1.097,0.19-2.267,0.571v-1.097l6.265-2.304h1.097v7.131c1.772-2.194,3.186-3.737,4.242-4.63
				c1.967-1.697,3.901-2.545,5.802-2.545c2.259,0,4.055,0.878,5.388,2.633C590.833,505.122,591.418,506.958,591.418,509.078z
				 M587.736,511.075c0-1.887-0.358-3.518-1.073-4.893c-0.943-1.814-2.34-2.721-4.193-2.721c-2.584,0-4.721,1.528-6.412,4.586
				c-1.398,2.531-2.097,5.076-2.097,7.635c0,0.688,0.089,1.61,0.268,2.765c2.275,1.668,4.291,2.501,6.046,2.501
				c2.438,0,4.356-1.155,5.754-3.466C587.168,515.581,587.736,513.445,587.736,511.075z"/>
			<radialGradient id="SVGID_24_" cx="604.7043" cy="511.6347" r="10.9122" gradientUnits="userSpaceOnUse">
				<stop  offset="0.3018" style="stop-color:#F2DC8E"/>
				<stop  offset="0.5785" style="stop-color:#DFB900"/>
				<stop  offset="0.8518" style="stop-color:#B38C13"/>
				<stop  offset="0.9797" style="stop-color:#E0BE09"/>
			</radialGradient>
			<path style="fill:url(#SVGID_24_);" d="M615.87,510.505c0,3.13-1.178,5.859-3.535,8.184c-2.422,2.399-5.355,3.598-8.801,3.598
				c-3.104,0-5.567-0.9-7.387-2.699c-1.739-1.726-2.609-4-2.609-6.824c0-3.086,1.162-5.8,3.486-8.14
				c2.422-2.428,5.323-3.642,8.703-3.642c3.137,0,5.624,0.885,7.46,2.655C614.976,505.378,615.87,507.667,615.87,510.505z
				 M612.555,512.94c0-1.755-0.431-3.452-1.292-5.09c-0.894-1.712-2.121-3.043-3.681-3.994c-1.3-0.775-2.609-1.163-3.925-1.163
				c-2.259,0-3.998,0.76-5.217,2.282c-1.073,1.346-1.609,3.072-1.609,5.178c0,2.472,0.837,4.732,2.511,6.78
				c1.82,2.253,4.055,3.379,6.704,3.379c2.064,0,3.698-0.79,4.9-2.369C612.018,516.538,612.555,514.871,612.555,512.94z"/>
			<radialGradient id="SVGID_25_" cx="627.1821" cy="511.2949" r="9.6887" gradientUnits="userSpaceOnUse">
				<stop  offset="0.3018" style="stop-color:#F2DC8E"/>
				<stop  offset="0.5785" style="stop-color:#DFB900"/>
				<stop  offset="0.8518" style="stop-color:#B38C13"/>
				<stop  offset="0.9797" style="stop-color:#E0BE09"/>
			</radialGradient>
			<path style="fill:url(#SVGID_25_);" d="M636.154,508.07h-1.731c-0.016-2.647-0.87-3.971-2.56-3.971
				c-2.097,0-3.763,1.624-4.998,4.871c-0.959,2.472-1.438,4.871-1.438,7.197c0,1.828,0.406,3.043,1.219,3.642
				c0.731,0.526,2.145,0.789,4.242,0.789v1.054h-12.677v-1.054c1.365-0.029,2.332-0.299,2.901-0.811s0.853-1.383,0.853-2.611
				v-11.388c0-1.287-0.528-1.931-1.585-1.931c-0.439,0-1.162,0.161-2.17,0.483v-1.054l6.412-2.347h1.073v7.131
				c3.072-4.725,5.916-7.087,8.533-7.087c0.536,0,1.178,0.11,1.926,0.329V508.07z"/>
			<radialGradient id="SVGID_26_" cx="644.15" cy="508.4643" r="10.8633" gradientUnits="userSpaceOnUse">
				<stop  offset="0.3018" style="stop-color:#F2DC8E"/>
				<stop  offset="0.5785" style="stop-color:#DFB900"/>
				<stop  offset="0.8518" style="stop-color:#B38C13"/>
				<stop  offset="0.9797" style="stop-color:#E0BE09"/>
			</radialGradient>
			<path style="fill:url(#SVGID_26_);" d="M650.854,504.23h-5.973v14.086c0,0.922,0.406,1.383,1.219,1.383
				c0.796,0,1.983-0.585,3.559-1.755c0.179-0.132,0.317-0.227,0.414-0.286v1.273c-2.763,2.238-4.965,3.357-6.607,3.357
				c-1.528,0-2.292-1.06-2.292-3.181V504.23h-3.73v-0.987c1.43,0,2.446-0.26,3.047-0.779c0.601-0.52,0.902-1.415,0.902-2.688v-3.313
				l4.998-1.821v1.141c-1.024,0.219-1.536,1.258-1.536,3.115c0,2.004,0.536,3.291,1.609,3.862c0.585,0.322,1.373,0.483,2.365,0.483
				h2.023V504.23z"/>
		</g>
	</g>
</g>
<g>
	
		<radialGradient id="SVGID_27_" cx="562.9163" cy="379.7166" r="293.9149" fx="443.5513" fy="202.6763" gradientUnits="userSpaceOnUse">
		<stop  offset="0.3018" style="stop-color:#F2DC8E"/>
		<stop  offset="0.5785" style="stop-color:#DFB900"/>
		<stop  offset="0.8518" style="stop-color:#B38C13"/>
		<stop  offset="0.9797" style="stop-color:#E0BE09"/>
	</radialGradient>
	<path style="fill:url(#SVGID_27_);" d="M429.625,22.847L217.305,406.593H385.88l4.617-10.384
		c9.276-20.88,22.456-39.602,39.195-55.684c16.63,16.042,29.763,34.765,39.056,55.684l4.617,10.384h168.579L429.625,22.847z
		 M429.62,294.935c-14.938-10.77-28.886-18.026-38.729-22.473c6.938-11.914,19.01-28.078,38.725-42.087
		c19.526,13.916,31.64,30.137,38.658,42.125C458.444,276.949,444.517,284.196,429.62,294.935z M457.306,318.545
		c21.919-14.397,39.539-19.732,39.707-19.78l17.39-5.014l-5.616-17.205c-0.655-2.019-16.689-49.837-70.142-82.029l-9.02-5.433
		l-9.016,5.433c-53.298,32.097-69.487,79.995-70.15,82.023l-5.616,17.211l17.39,5.012c0.18,0.055,17.835,5.293,39.791,19.698
		c-15.576,15.683-28.525,33.552-38.528,53.172h-86.89L429.625,95.059l153.019,276.574H495.75
		C485.764,352.044,472.845,334.205,457.306,318.545z"/>
	<path style="fill:#5A5A59;" d="M457.306,318.545c0,0-10.456,4.814-27.614,21.979c0,0,3.66,3.465,4.332,4.137
		C434.023,344.661,441.411,332.975,457.306,318.545z"/>
</g>
</svg>
