<svg xmlns="http://www.w3.org/2000/svg" viewBox="0 0 161.16 139.3"><defs><style>.cls-1,.cls-2{fill:none;stroke:#fff;stroke-width:3px;}.cls-1{stroke-miterlimit:10;}.cls-2{stroke-linecap:round;stroke-linejoin:round;}</style></defs><title>icon-cheese-white</title><g id="Layer_2" data-name="Layer 2"><g id="Layer_3" data-name="Layer 3"><path class="cls-1" d="M62.33,36.69v-14L88,1.67,99.16,5s-1.33,10,6.5,12.33,12.5-7,12.5-7l41.5,12.33V62.33s-11.33,3.17-14.83,6.17S138,82,138,82H127.72"/><line class="cls-1" x1="62.33" y1="22.67" x2="159.66" y2="22.67"/><circle class="cls-1" cx="119.83" cy="37.33" r="6.33"/><circle class="cls-1" cx="146.5" cy="47.67" r="6.67"/><path class="cls-2" d="M1.5,72.8H124V93.3s-5.83.83-5.83,9.5c0,9.83,5.83,10.5,5.83,10.5v24.5H1.5Z"/><path class="cls-2" d="M88.38,28.86,100,43.3s-6.83,5.83-1.83,12.33c5.68,7.38,12.33.67,12.33.67L124,72.8H1.5L35,54.8a10.78,10.78,0,0,0,12.5,2c6.69-3.13,5.5-11,5.5-11Z"/><ellipse class="cls-2" cx="75.25" cy="53.22" rx="5.25" ry="8.42"/><ellipse class="cls-2" cx="32.5" cy="89.89" rx="6.67" ry="9.08"/><ellipse class="cls-2" cx="82.58" cy="116.3" rx="9.25" ry="11"/></g></g></svg>