<svg xmlns="http://www.w3.org/2000/svg" viewBox="0 0 122.86 122.86"><defs><style>.cls-1{fill:#fff;}.cls-1,.cls-3,.cls-4,.cls-5{stroke:#1d1d1b;}.cls-1,.cls-4,.cls-5{stroke-miterlimit:10;}.cls-2{fill:#efd95c;}.cls-3,.cls-4,.cls-5,.cls-6{fill:none;}.cls-3,.cls-6{stroke-linecap:round;stroke-linejoin:round;}.cls-3{stroke-width:2px;}.cls-5{stroke-width:0.5px;}.cls-6{stroke:#000;}.cls-7{fill:#1d1d1b;}</style></defs><title>cheese.com-logo-261017-2</title><g id="Layer_2" data-name="Layer 2"><g id="Layer_1-2" data-name="Layer 1"><polygon class="cls-1" points="108.65 100.36 90.16 115.47 67.3 122.35 43.53 119.96 22.5 108.65 7.39 90.16 0.51 67.3 2.9 43.53 14.2 22.5 32.7 7.39 55.56 0.51 79.32 2.9 100.36 14.2 115.47 32.7 122.35 55.56 119.96 79.32 108.65 100.36"/><polygon class="cls-2" points="61.47 55.38 61.53 67.28 70.2 79.45 70.2 67.72 61.47 55.38"/><polygon class="cls-2" points="61.53 67.28 61.47 55.5 53.87 67.99 53.87 79.66 61.53 67.28"/><path class="cls-3" d="M116.09.18"/><circle class="cls-4" cx="61.43" cy="61.43" r="55.22"/><path class="cls-4" d="M18.54,79.28q-.74-1.81-1.34-3.7a46.06,46.06,0,0,1-1.66-7.31"/><circle class="cls-5" cx="61.43" cy="61.43" r="37.47"/><path class="cls-6" d="M90.81,55.76c0,5.92-8.66,10.93-20.59,12.6L61.59,55.54l-7.71,13C41.37,67,32.16,61.87,32.16,55.76c0-7.29,13.13-13.2,29.32-13.2S90.81,48.47,90.81,55.76Z"/><path class="cls-6" d="M70.21,80.08c11.23-1.16,15.76-4.28,18.73-7.4,3.64-3.83,2.69-13.45,1.86-16.92"/><path class="cls-6" d="M32.16,55.76s-2.59,11.85,1.14,16.1c3.13,3.57,8.41,7.43,20.59,8.44"/><polyline class="cls-6" points="53.89 68.51 53.89 80.3 61.55 67.92 61.59 55.54"/><polyline class="cls-6" points="61.55 67.92 70.21 80.08 70.21 68.36"/><polygon class="cls-7" points="15.11 57.36 16.27 59.7 18.86 60.08 16.98 61.91 17.43 64.49 15.11 63.27 12.79 64.49 13.23 61.91 11.36 60.08 13.95 59.7 15.11 57.36"/><polygon class="cls-7" points="107.75 57.36 108.91 59.7 111.5 60.08 109.62 61.91 110.06 64.49 107.75 63.27 105.43 64.49 105.87 61.91 104 60.08 106.59 59.7 107.75 57.36"/><path class="cls-7" d="M21.3,30.2l2.77,1.58L24,32a4,4,0,0,0-2.39-.12A3,3,0,0,0,20,33.08a2.95,2.95,0,0,0,.07,3.49A6.71,6.71,0,0,0,22,38.35a5.47,5.47,0,0,0,2.06.88A3,3,0,0,0,25.89,39a3.53,3.53,0,0,0,1.45-1.28,3.25,3.25,0,0,0,.57-1.56A5.31,5.31,0,0,0,27.46,34l.23-.1a4.93,4.93,0,0,1,.62,2.38,4.17,4.17,0,0,1-.75,2.18,4.22,4.22,0,0,1-3.43,2,4.94,4.94,0,0,1-3-.88,5.38,5.38,0,0,1-1.8-1.95,4.55,4.55,0,0,1-.56-2.45,4.68,4.68,0,0,1,.79-2.36A4.42,4.42,0,0,1,21,31.51a1.11,1.11,0,0,0,.36-.26.46.46,0,0,0,.07-.34,1.08,1.08,0,0,0-.29-.5Z"/><path class="cls-7" d="M28.6,28.91,31.81,26,30,24a3.12,3.12,0,0,0-.71-.64.61.61,0,0,0-.42,0,1.26,1.26,0,0,0-.58.3l-.24.22-.17-.19,3-2.71.17.19-.24.22a1.34,1.34,0,0,0-.36.54.58.58,0,0,0,0,.45,3.31,3.31,0,0,0,.56.73l4.09,4.45a3.07,3.07,0,0,0,.7.63.62.62,0,0,0,.41,0,1.3,1.3,0,0,0,.58-.31l.24-.22.17.19-3,2.71L34,30.39l.24-.22a1,1,0,0,0,.39-.81,2,2,0,0,0-.59-.9l-1.93-2.1-3.21,2.94,1.93,2.1a3.12,3.12,0,0,0,.7.63A.61.61,0,0,0,32,32a1.28,1.28,0,0,0,.58-.3l.25-.23.17.19-3,2.71-.17-.19L30.1,34a1,1,0,0,0,.39-.82,2.12,2.12,0,0,0-.6-.9l-4.09-4.45a3.16,3.16,0,0,0-.71-.64.63.63,0,0,0-.41,0,1.3,1.3,0,0,0-.58.31l-.25.22-.17-.19,3-2.71.17.19-.25.23a1.32,1.32,0,0,0-.36.54.6.6,0,0,0,0,.45,3.2,3.2,0,0,0,.56.73Z"/><path class="cls-7" d="M35.87,18.46l1.8,3.23,1.8-1a1.68,1.68,0,0,0,.82-.73,1.55,1.55,0,0,0-.19-1.17l.22-.12,1.59,2.85-.22.12a3.59,3.59,0,0,0-.59-.67.87.87,0,0,0-.54-.13,2.08,2.08,0,0,0-.83.3l-1.8,1,1.5,2.7a2.82,2.82,0,0,0,.42.63.43.43,0,0,0,.27.09,1.18,1.18,0,0,0,.5-.19L42,24.6a4.26,4.26,0,0,0,1-.66,1.73,1.73,0,0,0,.39-.72,5.36,5.36,0,0,0,.14-1.56l.24-.13L44.15,24l-6.3,3.51-.12-.22L38,27.1a1.31,1.31,0,0,0,.47-.44.58.58,0,0,0,.1-.44,3.23,3.23,0,0,0-.37-.83l-3-5.31q-.43-.78-.69-.87a1.07,1.07,0,0,0-.86.16l-.29.16-.12-.22,6.3-3.51,1.09,1.74-.24.13a3.21,3.21,0,0,0-.77-.73,1.11,1.11,0,0,0-.66-.11,3.12,3.12,0,0,0-.9.38Z"/><path class="cls-7" d="M45.61,14l1.08,3.54,2-.6a1.68,1.68,0,0,0,1-.54,1.55,1.55,0,0,0,.06-1.19l.25-.08.95,3.12-.24.07a3.61,3.61,0,0,0-.44-.78.87.87,0,0,0-.5-.25,2.1,2.1,0,0,0-.87.12l-2,.6.9,3a2.81,2.81,0,0,0,.27.71.44.44,0,0,0,.25.15,1.19,1.19,0,0,0,.53-.08l1.52-.46a4.3,4.3,0,0,0,1.07-.44,1.72,1.72,0,0,0,.53-.62,5.23,5.23,0,0,0,.46-1.49l.26-.08-.09,2.48-6.91,2.1L45.55,23l.32-.1a1.32,1.32,0,0,0,.56-.33.58.58,0,0,0,.19-.4,3.24,3.24,0,0,0-.19-.89l-1.77-5.82a2,2,0,0,0-.49-1,1.07,1.07,0,0,0-.87,0l-.32.1-.07-.24,6.91-2.1.69,1.93-.26.08a3.25,3.25,0,0,0-.6-.88,1.1,1.1,0,0,0-.62-.25,3.12,3.12,0,0,0-1,.18Z"/><path class="cls-7" d="M59.45,10.7l.29,3.23-.25,0a4,4,0,0,0-.58-1.44,2.31,2.31,0,0,0-1-.79,2.53,2.53,0,0,0-1.25-.21,1.67,1.67,0,0,0-1.14.54,1.33,1.33,0,0,0-.38,1,1.17,1.17,0,0,0,.37.75A7.62,7.62,0,0,0,57.66,15a14.08,14.08,0,0,1,1.88.92,2.64,2.64,0,0,1,.82.82,2.34,2.34,0,0,1,.35,1,2.43,2.43,0,0,1-.66,1.9,3,3,0,0,1-2,1,4.4,4.4,0,0,1-.77,0,7.79,7.79,0,0,1-.91-.17,4,4,0,0,0-.87-.14.37.37,0,0,0-.26.13.83.83,0,0,0-.11.44l-.25,0-.29-3.2.25,0a4.53,4.53,0,0,0,.62,1.46,2.32,2.32,0,0,0,1,.75,2.88,2.88,0,0,0,1.4.21,2,2,0,0,0,1.32-.58,1.41,1.41,0,0,0,.4-1.12,1.46,1.46,0,0,0-.25-.68,2.09,2.09,0,0,0-.65-.6,17,17,0,0,0-1.54-.75,14.12,14.12,0,0,1-1.8-.92,2.88,2.88,0,0,1-.85-.81,2.19,2.19,0,0,1-.36-1,2.3,2.3,0,0,1,.61-1.8A2.75,2.75,0,0,1,56.6,11a3.93,3.93,0,0,1,1.61.22,1.63,1.63,0,0,0,.56.12.42.42,0,0,0,.28-.13.86.86,0,0,0,.14-.45Z"/><path class="cls-7" d="M65.92,11.63l-.43,3.68,2,.24a1.68,1.68,0,0,0,1.09-.12,1.56,1.56,0,0,0,.53-1.06l.25,0L69,17.63l-.25,0a3.68,3.68,0,0,0-.09-.89.87.87,0,0,0-.36-.42,2.08,2.08,0,0,0-.85-.24l-2-.24-.36,3.07a2.87,2.87,0,0,0,0,.76.43.43,0,0,0,.17.24,1.17,1.17,0,0,0,.51.14l1.58.19a4.3,4.3,0,0,0,1.16,0,1.73,1.73,0,0,0,.74-.35,5.35,5.35,0,0,0,1-1.18l.27,0L69.41,21l-7.17-.84,0-.25.33,0a1.31,1.31,0,0,0,.64-.08.58.58,0,0,0,.34-.29,3.24,3.24,0,0,0,.18-.89l.71-6a2,2,0,0,0,0-1.11,1.07,1.07,0,0,0-.79-.37l-.33,0,0-.25,7.17.84-.14,2-.27,0a3.26,3.26,0,0,0-.2-1,1.11,1.11,0,0,0-.47-.48,3.07,3.07,0,0,0-1-.22Z"/><path class="cls-7" d="M72.89,20.54a.73.73,0,0,1,.46.36.74.74,0,0,1,.07.58.77.77,0,1,1-.53-.95Z"/><path class="cls-7" d="M86.39,17.14l-1.16,3L85,20a4,4,0,0,0-.23-2.38,3,3,0,0,0-1.46-1.38,3,3,0,0,0-3.44.57A6.72,6.72,0,0,0,78.42,19a5.47,5.47,0,0,0-.57,2.17,3,3,0,0,0,.5,1.81,3.53,3.53,0,0,0,1.48,1.25,3.24,3.24,0,0,0,1.62.33,5.3,5.3,0,0,0,2-.75l.14.22a4.91,4.91,0,0,1-2.27,1,4.16,4.16,0,0,1-2.27-.42,4.22,4.22,0,0,1-2.53-3.1A4.94,4.94,0,0,1,77,18.3a5.38,5.38,0,0,1,1.67-2.06A4.55,4.55,0,0,1,81,15.32a4.68,4.68,0,0,1,2.45.44,4.4,4.4,0,0,1,1.6,1.3,1.09,1.09,0,0,0,.31.31.46.46,0,0,0,.35,0,1.08,1.08,0,0,0,.45-.36Z"/><path class="cls-7" d="M93.37,22.05A4.25,4.25,0,0,1,95,25.11a4.77,4.77,0,0,1-1.13,3.53,4.92,4.92,0,0,1-3.27,1.91,4.5,4.5,0,0,1-5.09-4.06,4.94,4.94,0,0,1,1.21-3.59A4.74,4.74,0,0,1,90.15,21,4.48,4.48,0,0,1,93.37,22.05Zm-.42.31a2.47,2.47,0,0,0-2.16-.54,5.27,5.27,0,0,0-2.87,2,5.56,5.56,0,0,0-1.45,3.36,2.42,2.42,0,0,0,1,2,2.72,2.72,0,0,0,2.34.57,5,5,0,0,0,2.71-2A5.68,5.68,0,0,0,94,24.41,2.55,2.55,0,0,0,93,22.36Z"/><path class="cls-7" d="M94.8,37.38l4.37-7.49L94,33.49q-.71.5-.77.77a1,1,0,0,0,.23.83l.19.27-.21.15-1.87-2.67.21-.15L92,33a1,1,0,0,0,.78.48A2.08,2.08,0,0,0,93.7,33l5-3.51a2.15,2.15,0,0,0,.66-.63.78.78,0,0,0,.07-.48,1.89,1.89,0,0,0-.37-.76l.21-.15,1.52,2.17-4,7,7.92-1.47,1.52,2.17-.21.15-.19-.27a1,1,0,0,0-.78-.49,2.11,2.11,0,0,0-.91.45l-5,3.51q-.71.5-.77.78a1,1,0,0,0,.23.83l.19.27-.21.15-2.28-3.26.21-.15.19.27a.94.94,0,0,0,.78.48,2.09,2.09,0,0,0,.91-.45L103.45,36l-8.53,1.57Z"/><path class="cls-7" d="M24.7,83.5l-2,1.11-.09-.16a2.92,2.92,0,0,0,.78-.79,1.67,1.67,0,0,0,.24-.88,1.82,1.82,0,0,0-.22-.88,1.2,1.2,0,0,0-.68-.6,1,1,0,0,0-.79,0,.85.85,0,0,0-.39.45,5.48,5.48,0,0,0-.17,1.76,10,10,0,0,1-.07,1.5,1.89,1.89,0,0,1-.31.77,1.68,1.68,0,0,1-.58.53,1.74,1.74,0,0,1-1.44.11,2.14,2.14,0,0,1-1.21-1.07,3.28,3.28,0,0,1-.22-.5,5.86,5.86,0,0,1-.14-.65,2.84,2.84,0,0,0-.16-.61.26.26,0,0,0-.16-.14.59.59,0,0,0-.32.05l-.09-.16,2-1.1.09.16a3.27,3.27,0,0,0-.79.82,1.68,1.68,0,0,0-.21.87,2.06,2.06,0,0,0,.26,1,1.4,1.4,0,0,0,.75.7,1,1,0,0,0,.85-.05A1,1,0,0,0,20,85.4a1.48,1.48,0,0,0,.21-.6,12.17,12.17,0,0,0,.05-1.23,10.33,10.33,0,0,1,.09-1.44,2.08,2.08,0,0,1,.29-.79,1.56,1.56,0,0,1,.58-.53,1.65,1.65,0,0,1,1.36-.11,2,2,0,0,1,1.13,1A2.82,2.82,0,0,1,24,82.82a1.18,1.18,0,0,0,.08.4.29.29,0,0,0,.17.15.61.61,0,0,0,.33,0Z"/><path class="cls-7" d="M23.32,88.15,21.74,89.3c-.34.25-.53.44-.56.57a.71.71,0,0,0,.16.59l.15.21-.15.11-1.69-2.33.15-.11.15.2a.68.68,0,0,0,.58.33,1.63,1.63,0,0,0,.65-.35L24.7,86c.34-.25.53-.44.56-.57a.72.72,0,0,0-.16-.59l-.15-.21.15-.11,1.44,2a4.37,4.37,0,0,1,.68,1.26,2,2,0,0,1,0,1.08,1.6,1.6,0,0,1-.64.9,1.76,1.76,0,0,1-1.4.34,2.14,2.14,0,0,1-1.32-.94,4.38,4.38,0,0,1-.28-.44Q23.46,88.45,23.32,88.15Zm.23-.17q.11.24.21.42a2.81,2.81,0,0,0,.18.29,1.17,1.17,0,0,0,.84.49,1.44,1.44,0,0,0,1.05-.3,1.87,1.87,0,0,0,.55-.62,1.23,1.23,0,0,0,.16-.74,1.48,1.48,0,0,0-.29-.71,2.85,2.85,0,0,0-.46-.47Z"/><path class="cls-7" d="M29.43,90.67,27.51,92.5l1,1.07a1.2,1.2,0,0,0,.66.44,1.11,1.11,0,0,0,.78-.35l.13.13L28.4,95.4l-.13-.13a2.57,2.57,0,0,0,.36-.54.62.62,0,0,0,0-.4,1.51,1.51,0,0,0-.36-.52l-1-1.07-1.6,1.53a2.07,2.07,0,0,0-.36.4.32.32,0,0,0,0,.21.86.86,0,0,0,.22.31l.79.82a3.06,3.06,0,0,0,.63.54,1.23,1.23,0,0,0,.57.14,3.82,3.82,0,0,0,1.1-.19l.14.14-1.62.74-3.57-3.74.13-.13.16.17a.93.93,0,0,0,.39.25.41.41,0,0,0,.32,0,2.29,2.29,0,0,0,.51-.41l3.15-3q.46-.44.48-.64a.76.76,0,0,0-.27-.56l-.16-.17.13-.13,3.57,3.74-1,1.07-.13-.14a2.29,2.29,0,0,0,.37-.67.79.79,0,0,0,0-.48A2.24,2.24,0,0,0,30.7,92Z"/><path class="cls-7" d="M37.33,96.91l-1.28,1.9-.12-.09a2.87,2.87,0,0,0,.21-1.7,2.14,2.14,0,0,0-.8-1.19,2.11,2.11,0,0,0-2.5-.14A4.77,4.77,0,0,0,31.47,97a3.88,3.88,0,0,0-.74,1.43,2.19,2.19,0,0,0,.07,1.35,2.53,2.53,0,0,0,.84,1.1,2.31,2.31,0,0,0,1.08.48,3.79,3.79,0,0,0,1.55-.21l.06.17a3.52,3.52,0,0,1-1.73.32,3,3,0,0,1-1.52-.65,3,3,0,0,1-1.28-2.56,3.53,3.53,0,0,1,.79-2.13,3.84,3.84,0,0,1,1.49-1.18,3.27,3.27,0,0,1,1.78-.27,3.37,3.37,0,0,1,1.65.69,3.18,3.18,0,0,1,.92,1.16.77.77,0,0,0,.17.27.33.33,0,0,0,.24.07.78.78,0,0,0,.37-.18Z"/><path class="cls-7" d="M37,104.52l-.09.16-2.46-1.49.09-.16.2.12a.72.72,0,0,0,.64.11,1.51,1.51,0,0,0,.49-.59L38.17,99a2.24,2.24,0,0,0,.29-.61.45.45,0,0,0-.06-.29.94.94,0,0,0-.33-.34l-.2-.12.09-.16,2.46,1.49-.09.16L40.12,99a.71.71,0,0,0-.64-.1c-.12,0-.29.24-.5.59l-2.24,3.71a2.2,2.2,0,0,0-.29.61.44.44,0,0,0,.07.29.92.92,0,0,0,.32.33Z"/><path class="cls-7" d="M42.94,105.11,40.57,104l-.85.78a1.68,1.68,0,0,0-.39.46.34.34,0,0,0,0,.31,1.27,1.27,0,0,0,.51.39l-.08.17-1.93-.86.08-.17a1.14,1.14,0,0,0,.58,0,3,3,0,0,0,.9-.65l4.41-4.08.16.07-.15,6a2.55,2.55,0,0,0,.11,1,1,1,0,0,0,.49.47l-.07.17-2.42-1.08L42,107a1,1,0,0,0,.55.1.35.35,0,0,0,.24-.2,2,2,0,0,0,.1-.71Zm0-.39.07-2.94-2.17,2Z"/><path class="cls-7" d="M51.45,108.27l.15.08-1,1.61-5-1.37,0-.18.24.07a.68.68,0,0,0,.66-.11,1.63,1.63,0,0,0,.29-.68l1.14-4.18a1.37,1.37,0,0,0,.07-.8.72.72,0,0,0-.5-.36l-.24-.07,0-.18,2.93.8,0,.18a1.87,1.87,0,0,0-.75-.1.6.6,0,0,0-.35.18,2.12,2.12,0,0,0-.28.71l-1.11,4.07a1.38,1.38,0,0,0-.07.56.35.35,0,0,0,.14.2,3.29,3.29,0,0,0,.73.25l.47.13a3.58,3.58,0,0,0,1.08.18,1.43,1.43,0,0,0,.65-.24A3.31,3.31,0,0,0,51.45,108.27Z"/><path class="cls-7" d="M57.91,104.34l-.16,1.57-.19,0a1.86,1.86,0,0,0-.06-.61,1,1,0,0,0-.34-.48,1.43,1.43,0,0,0-.64-.23l-.94-.14-.75,5.07a1.38,1.38,0,0,0,0,.78.74.74,0,0,0,.54.29l.23,0,0,.18-2.82-.42,0-.18.23,0a.69.69,0,0,0,.64-.17,1.51,1.51,0,0,0,.21-.7l.75-5.07-.8-.12a2.23,2.23,0,0,0-.67,0,.92.92,0,0,0-.49.29,1.44,1.44,0,0,0-.32.68l-.19,0,.31-1.55Z"/><path class="cls-7" d="M63,104.38l2.34,0v.18H65.2a1,1,0,0,0-.37.12,1.49,1.49,0,0,0-.45.33,4.42,4.42,0,0,0-.49.7l-1.6,2.56,0,1.68a1.33,1.33,0,0,0,.15.77.77.77,0,0,0,.59.2h.22v.18l-2.85,0v-.18h.24a.68.68,0,0,0,.6-.26,1.5,1.5,0,0,0,.1-.72v-1.59l-1.86-2.79a5.93,5.93,0,0,0-.45-.61,1.7,1.7,0,0,0-.49-.29.65.65,0,0,0-.29,0v-.18l2.87,0v.18H61a.88.88,0,0,0-.43.11.35.35,0,0,0-.19.33,1.58,1.58,0,0,0,.31.64l1.42,2.15,1.3-2.08a1.53,1.53,0,0,0,.29-.7.44.44,0,0,0-.07-.25.49.49,0,0,0-.21-.17,1,1,0,0,0-.4-.06Z"/><path class="cls-7" d="M73.41,102.61l.65,2.19-.15,0a2.86,2.86,0,0,0-1.18-1.25,2.13,2.13,0,0,0-1.43-.14,2.11,2.11,0,0,0-1.69,1.84,4.81,4.81,0,0,0,.1,1.87,3.9,3.9,0,0,0,.63,1.48,2.18,2.18,0,0,0,1.08.81,2.53,2.53,0,0,0,1.38.06,2.33,2.33,0,0,0,1.06-.53,3.79,3.79,0,0,0,.83-1.32l.17.06a3.52,3.52,0,0,1-.86,1.54,3,3,0,0,1-1.47.76,3,3,0,0,1-2.79-.64,3.54,3.54,0,0,1-1.14-2,3.83,3.83,0,0,1,0-1.9,3.26,3.26,0,0,1,.92-1.54,3.34,3.34,0,0,1,1.58-.83,3.14,3.14,0,0,1,1.48,0,.8.8,0,0,0,.31,0,.33.33,0,0,0,.21-.14.77.77,0,0,0,.1-.4Z"/><path class="cls-7" d="M77.06,104.78l2.9-1.14-.7-1.79a2.25,2.25,0,0,0-.31-.61.45.45,0,0,0-.27-.12.93.93,0,0,0-.46.05l-.22.09-.07-.17L80.6,100l.07.17-.22.09a.94.94,0,0,0-.38.27.42.42,0,0,0-.11.3,2.41,2.41,0,0,0,.19.63l1.59,4a2.25,2.25,0,0,0,.31.6.45.45,0,0,0,.27.12,1,1,0,0,0,.47-.06l.22-.09.07.17-2.67,1.05-.07-.17.22-.09a.71.71,0,0,0,.47-.44,1.44,1.44,0,0,0-.16-.75l-.75-1.9-2.9,1.14.75,1.9a2.24,2.24,0,0,0,.31.6.45.45,0,0,0,.27.12.9.9,0,0,0,.46-.06l.22-.09.07.17-2.68,1.05-.07-.17.22-.09a.71.71,0,0,0,.47-.45,1.5,1.5,0,0,0-.17-.75l-1.59-4a2.21,2.21,0,0,0-.31-.61.44.44,0,0,0-.27-.12,1,1,0,0,0-.47.06l-.22.09-.07-.17,2.67-1.05.07.17-.22.09a1,1,0,0,0-.38.27.43.43,0,0,0-.11.3,2.31,2.31,0,0,0,.19.63Z"/><path class="cls-7" d="M82.7,99.19,84,101.47l1.27-.75c.33-.2.52-.37.57-.54a1.12,1.12,0,0,0-.16-.84l.16-.09,1.19,2-.16.09a2.61,2.61,0,0,0-.44-.47.62.62,0,0,0-.39-.08,1.48,1.48,0,0,0-.59.23l-1.27.75,1.13,1.9a2,2,0,0,0,.31.45.32.32,0,0,0,.2.06.85.85,0,0,0,.35-.14l1-.58a3,3,0,0,0,.67-.49,1.22,1.22,0,0,0,.27-.52,3.8,3.8,0,0,0,.07-1.12l.17-.1.36,1.74-4.45,2.63-.09-.16.2-.12a.94.94,0,0,0,.33-.33.41.41,0,0,0,.06-.31,2.3,2.3,0,0,0-.28-.59l-2.22-3.75q-.33-.55-.51-.61a.77.77,0,0,0-.61.13L81,100l-.09-.16,4.45-2.63.81,1.23-.17.1a2.33,2.33,0,0,0-.57-.51.79.79,0,0,0-.48-.07,2.21,2.21,0,0,0-.64.29Z"/><path class="cls-7" d="M87.81,95.81l1.66,2.07L90.62,97a1.21,1.21,0,0,0,.49-.62,1.11,1.11,0,0,0-.28-.8l.14-.11,1.46,1.82-.14.12a2.57,2.57,0,0,0-.5-.4.62.62,0,0,0-.4,0,1.49,1.49,0,0,0-.55.31l-1.15.92,1.38,1.72a2.06,2.06,0,0,0,.37.4.32.32,0,0,0,.2,0,.86.86,0,0,0,.33-.19l.89-.71a3,3,0,0,0,.59-.58,1.22,1.22,0,0,0,.19-.55,3.78,3.78,0,0,0-.09-1.11l.15-.12.6,1.67-4,3.24-.11-.14.19-.15a.94.94,0,0,0,.28-.37.42.42,0,0,0,0-.32,2.31,2.31,0,0,0-.36-.54L87.57,97c-.27-.33-.46-.51-.59-.53a.77.77,0,0,0-.59.22l-.19.15-.12-.14,4-3.24,1,1.1-.15.12a2.31,2.31,0,0,0-.63-.42.79.79,0,0,0-.48,0,2.24,2.24,0,0,0-.59.38Z"/><path class="cls-7" d="M93.76,89.55l1.69,1.6-.13.13a2.88,2.88,0,0,0-1-.5,1.67,1.67,0,0,0-.91,0,1.81,1.81,0,0,0-.77.48,1.2,1.2,0,0,0-.36.83,1,1,0,0,0,.29.74.85.85,0,0,0,.55.23,5.44,5.44,0,0,0,1.72-.38,10.1,10.1,0,0,1,1.44-.4,1.89,1.89,0,0,1,.83.05,1.68,1.68,0,0,1,.68.39,1.74,1.74,0,0,1,.55,1.33,2.14,2.14,0,0,1-.65,1.48,3.15,3.15,0,0,1-.41.37,5.5,5.5,0,0,1-.57.34,2.91,2.91,0,0,0-.53.34.26.26,0,0,0-.08.19.6.6,0,0,0,.15.29l-.13.13-1.67-1.58.13-.13a3.23,3.23,0,0,0,1,.49,1.67,1.67,0,0,0,.89-.07,2.06,2.06,0,0,0,.85-.55,1.4,1.4,0,0,0,.43-.93,1,1,0,0,0-.31-.79,1,1,0,0,0-.46-.24,1.48,1.48,0,0,0-.63,0,11.92,11.92,0,0,0-1.18.33,10,10,0,0,1-1.4.36,2.09,2.09,0,0,1-.84,0,1.57,1.57,0,0,1-.68-.39,1.65,1.65,0,0,1-.52-1.26A2,2,0,0,1,92.35,91a2.85,2.85,0,0,1,1-.64,1.17,1.17,0,0,0,.36-.2.31.31,0,0,0,.09-.21.63.63,0,0,0-.13-.31Z"/><path class="cls-7" d="M96.06,87.48,98.22,89l.86-1.2a1.21,1.21,0,0,0,.31-.73,1.12,1.12,0,0,0-.48-.7l.11-.15,1.9,1.36-.11.15a2.6,2.6,0,0,0-.59-.25.62.62,0,0,0-.39.08,1.5,1.5,0,0,0-.44.45l-.86,1.2,1.8,1.29a2,2,0,0,0,.46.28.31.31,0,0,0,.21,0,.85.85,0,0,0,.26-.27l.66-.93a3.06,3.06,0,0,0,.42-.72,1.23,1.23,0,0,0,0-.58,3.81,3.81,0,0,0-.39-1l.12-.16,1,1.45-3,4.21-.15-.11.14-.19a.93.93,0,0,0,.17-.43.42.42,0,0,0-.07-.31,2.3,2.3,0,0,0-.49-.42l-3.54-2.54a1.46,1.46,0,0,0-.71-.35.77.77,0,0,0-.51.37l-.14.19-.15-.11,3-4.2,1.24.8-.11.16a2.32,2.32,0,0,0-.73-.24.79.79,0,0,0-.46.13,2.23,2.23,0,0,0-.47.52Z"/><path class="cls-7" d="M100.11,79.84l2.05,1.08-.08.16a2.91,2.91,0,0,0-1.09-.22,1.66,1.66,0,0,0-.86.29,1.82,1.82,0,0,0-.62.67,1.2,1.2,0,0,0-.12.9,1,1,0,0,0,.48.63.85.85,0,0,0,.59.07,5.46,5.46,0,0,0,1.56-.83,9.85,9.85,0,0,1,1.28-.77,1.89,1.89,0,0,1,.81-.17,1.67,1.67,0,0,1,.77.2,1.73,1.73,0,0,1,.88,1.14,2.14,2.14,0,0,1-.22,1.6,3.27,3.27,0,0,1-.29.46,6,6,0,0,1-.46.48,2.77,2.77,0,0,0-.42.47.26.26,0,0,0,0,.21.59.59,0,0,0,.22.24l-.09.16-2-1.08.08-.16a3.24,3.24,0,0,0,1.12.2,1.66,1.66,0,0,0,.84-.31,2.09,2.09,0,0,0,.67-.76,1.4,1.4,0,0,0,.17-1,1,1,0,0,0-.51-.68,1.05,1.05,0,0,0-.51-.11,1.49,1.49,0,0,0-.61.15,12,12,0,0,0-1.05.64,10.13,10.13,0,0,1-1.25.72,2.06,2.06,0,0,1-.82.19,1.58,1.58,0,0,1-.76-.19A1.65,1.65,0,0,1,99,83.15a2,2,0,0,1,.2-1.49,2.88,2.88,0,0,1,.76-.88,1.13,1.13,0,0,0,.29-.29.29.29,0,0,0,0-.22A.62.62,0,0,0,100,80Z"/><path class="cls-4" d="M107.57,65.8a46.06,46.06,0,0,1-3.44,13.67"/><path class="cls-4" d="M103.69,42.38A46,46,0,0,1,107.46,56"/><path class="cls-4" d="M15.39,56a46,46,0,0,1,3.78-13.67"/><path class="cls-4" d="M18.73,79.47A46.06,46.06,0,0,1,15.29,65.8"/></g></g></svg>