<?xml version="1.0" encoding="iso-8859-1"?>
<!-- Generator: Adobe Illustrator 25.0.0, SVG Export Plug-In . SVG Version: 6.00 Build 0)  -->
<svg version="1.1" id="Layer_1" xmlns="http://www.w3.org/2000/svg" xmlns:xlink="http://www.w3.org/1999/xlink" x="0px" y="0px"
	 viewBox="0 0 841.89 595.28" style="enable-background:new 0 0 841.89 595.28;" xml:space="preserve">
<rect style="fill:#010202;" width="841.89" height="595.28"/>
<g>
	<g>
		<g>
			<radialGradient id="SVGID_1_" cx="235.3074" cy="-818.8809" r="31.6743" gradientUnits="userSpaceOnUse">
				<stop  offset="0.3018" style="stop-color:#F2DC8E"/>
				<stop  offset="0.5785" style="stop-color:#DFB900"/>
				<stop  offset="0.8518" style="stop-color:#B38C13"/>
				<stop  offset="0.9797" style="stop-color:#E0BE09"/>
			</radialGradient>
			<path style="fill:url(#SVGID_1_);" d="M261.66-804.397l-4.807,21.739h-2.931c-0.039-1.548-0.782-2.322-2.228-2.322h-42.739
				v-2.533c3.518-0.035,5.882-0.641,7.094-1.82c1.211-1.178,1.817-3.368,1.817-6.569v-45.641c0-3.166-0.615-5.337-1.847-6.516
				c-1.231-1.178-3.586-1.802-7.064-1.873v-2.533h41.859c2.54,0,3.849-0.879,3.928-2.638h2.755v20.156h-4.28
				c-0.157-9.99-6.84-14.985-20.05-14.985h-4.456c-0.469,3.834-0.704,7.264-0.704,10.289c0,11.713,5.491,17.57,16.474,17.57h5.745
				v3.693l-21.516,0.528v30.339h6.214c13.132,0,20.656-5.628,22.571-16.884H261.66z"/>
			<radialGradient id="SVGID_2_" cx="279.6289" cy="-822.3369" r="28.0762" gradientUnits="userSpaceOnUse">
				<stop  offset="0.3018" style="stop-color:#F2DC8E"/>
				<stop  offset="0.5785" style="stop-color:#DFB900"/>
				<stop  offset="0.8518" style="stop-color:#B38C13"/>
				<stop  offset="0.9797" style="stop-color:#E0BE09"/>
			</radialGradient>
			<path style="fill:url(#SVGID_2_);" d="M293.084-784.98h-26.91v-2.533c3.283-0.07,5.608-0.721,6.977-1.953
				c1.368-1.231,2.052-3.324,2.052-6.279v-50.178c0-3.235-1.486-4.854-4.456-4.854c-1.251,0-2.776,0.281-4.573,0.844v-2.533
				l20.461-7.228v2.163c-1.681,0.739-2.521,2.023-2.521,3.852v57.935c0,2.955,0.674,5.048,2.023,6.279
				c1.348,1.232,3.664,1.882,6.947,1.953V-784.98z"/>
			<radialGradient id="SVGID_3_" cx="361.0317" cy="-820.121" r="35.5416" gradientUnits="userSpaceOnUse">
				<stop  offset="0.3018" style="stop-color:#F2DC8E"/>
				<stop  offset="0.5785" style="stop-color:#DFB900"/>
				<stop  offset="0.8518" style="stop-color:#B38C13"/>
				<stop  offset="0.9797" style="stop-color:#E0BE09"/>
			</radialGradient>
			<path style="fill:url(#SVGID_3_);" d="M396.97-784.98h-21.047v-2.533h1.348c0.664,0,0.997-0.581,0.997-1.741
				c0-0.351-0.079-0.739-0.234-1.161l-7.035-18.362h-25.62c-2.697,6.824-4.045,11.908-4.045,15.249c0,1.83,0.645,3.289,1.935,4.38
				c1.29,1.091,2.95,1.636,4.983,1.636h3.107v2.533h-26.265v-2.533c4.416-0.211,8.403-4.414,11.96-12.611l24.037-55.138h3.459
				l20.754,53.925c1.445,3.799,2.794,6.648,4.045,8.548c2.266,3.412,4.807,5.171,7.621,5.276V-784.98z M369.708-811.995
				l-10.67-28.07l-12.312,28.07H369.708z"/>
			<radialGradient id="SVGID_4_" cx="421.6513" cy="-809.8849" r="23.2991" gradientUnits="userSpaceOnUse">
				<stop  offset="0.3018" style="stop-color:#F2DC8E"/>
				<stop  offset="0.5785" style="stop-color:#DFB900"/>
				<stop  offset="0.8518" style="stop-color:#B38C13"/>
				<stop  offset="0.9797" style="stop-color:#E0BE09"/>
			</radialGradient>
			<path style="fill:url(#SVGID_4_);" d="M443.226-817.641h-4.163c-0.039-6.366-2.091-9.55-6.155-9.55
				c-5.042,0-9.049,3.905-12.018,11.714c-2.307,5.945-3.459,11.714-3.459,17.306c0,4.398,0.976,7.317,2.931,8.759
				c1.759,1.267,5.159,1.9,10.201,1.9v2.533h-30.486v-2.533c3.283-0.07,5.608-0.721,6.977-1.953
				c1.368-1.231,2.052-3.324,2.052-6.279v-27.384c0-3.095-1.271-4.643-3.811-4.643c-1.055,0-2.795,0.388-5.218,1.161v-2.533
				l15.419-5.646h2.58v17.148c7.387-11.362,14.226-17.043,20.519-17.043c1.291,0,2.834,0.264,4.632,0.792V-817.641z"/>
			<radialGradient id="SVGID_5_" cx="474.1219" cy="-809.1199" r="25.88" gradientUnits="userSpaceOnUse">
				<stop  offset="0.3018" style="stop-color:#F2DC8E"/>
				<stop  offset="0.5785" style="stop-color:#DFB900"/>
				<stop  offset="0.8518" style="stop-color:#B38C13"/>
				<stop  offset="0.9797" style="stop-color:#E0BE09"/>
			</radialGradient>
			<path style="fill:url(#SVGID_5_);" d="M500.211-791.312c-5.942,5.242-10.787,7.862-14.539,7.862
				c-3.362,0-5.042-1.689-5.042-5.065v-7.809c-9.302,8.583-16.63,12.875-21.984,12.875c-3.088,0-5.649-1.09-7.681-3.271
				c-1.955-2.075-2.931-4.519-2.931-7.334c0-7.632,10.865-15.864,32.596-24.693v-6.332c0-2.005-0.655-3.623-1.964-4.854
				c-1.31-1.231-3.078-1.846-5.305-1.846c-4.417,0-8.148,2.023-11.197,6.068c-2.503,3.377-4.007,7.247-4.515,11.608h-3.927v-12.663
				c8.988-5.347,17.45-8.02,25.385-8.02c3.79,0,6.478,0.757,8.061,2.269c1.582,1.513,2.374,3.993,2.374,7.44v32.977
				c0,1.583,0.8,2.375,2.404,2.375c1.563,0,4.317-1.618,8.266-4.854V-791.312z M481.274-814.475
				c-5.628,1.055-10.728,2.867-15.301,5.435c-6.019,3.377-9.028,7.194-9.028,11.45c0,2.181,0.752,3.923,2.257,5.224
				c1.505,1.302,3.468,1.952,5.892,1.952c5.628,0,9.908-2.919,12.84-8.759C480.082-803.571,481.195-808.671,481.274-814.475z"/>
			<radialGradient id="SVGID_6_" cx="530.4039" cy="-820.543" r="34.5345" gradientUnits="userSpaceOnUse">
				<stop  offset="0.3018" style="stop-color:#F2DC8E"/>
				<stop  offset="0.5785" style="stop-color:#DFB900"/>
				<stop  offset="0.8518" style="stop-color:#B38C13"/>
				<stop  offset="0.9797" style="stop-color:#E0BE09"/>
			</radialGradient>
			<path style="fill:url(#SVGID_6_);" d="M559.952-815.742c0,4.468-1.056,8.9-3.167,13.297c-2.111,4.398-4.983,8.056-8.617,10.975
				c-3.283,2.638-6.566,4.415-9.849,5.329c-2.776,0.774-6.606,1.161-11.491,1.161h-5.394c-3.088,0-5.159,0.088-6.214,0.263
				c-2.345,0.458-3.968,1.478-4.867,3.061h-3.927c2.228-3.623,3.342-7.791,3.342-12.505v-51.972c0-3.095-1.311-4.643-3.929-4.643
				c-1.212,0-2.872,0.405-4.983,1.213v-2.585l19.522-7.281v2.163c-1.095,0.563-1.642,1.495-1.642,2.797v36.143
				c5.511-5.698,9.106-9.215,10.787-10.553c4.846-3.904,9.497-5.857,13.953-5.857c5.394,0,9.595,2.023,12.604,6.068
				C558.661-825.151,559.952-820.842,559.952-815.742z M551.156-810.36c0-4.502-0.879-8.284-2.638-11.344
				c-2.228-3.94-5.608-5.91-10.142-5.91c-6.176,0-11.277,3.219-15.302,9.655c-3.4,5.453-5.1,11.169-5.1,17.148
				c0,2.252,0.253,4.784,0.762,7.598c4.768,2.638,9.849,3.957,15.243,3.957c6.097,0,10.63-2.286,13.601-6.859
				C549.964-799.772,551.156-804.52,551.156-810.36z"/>
			<radialGradient id="SVGID_7_" cx="579.0626" cy="-820.8596" r="27.0883" gradientUnits="userSpaceOnUse">
				<stop  offset="0.3018" style="stop-color:#F2DC8E"/>
				<stop  offset="0.5785" style="stop-color:#DFB900"/>
				<stop  offset="0.8518" style="stop-color:#B38C13"/>
				<stop  offset="0.9797" style="stop-color:#E0BE09"/>
			</radialGradient>
			<path style="fill:url(#SVGID_7_);" d="M592.487-784.98h-26.85v-2.533c3.283-0.07,5.598-0.721,6.947-1.953
				c1.348-1.231,2.022-3.324,2.022-6.279v-28.862c0-2.216-1.407-3.324-4.221-3.324c-1.017,0-2.13,0.229-3.341,0.686
				c-0.665,0.247-1.134,0.405-1.407,0.475v-2.691l15.008-5.329h2.872v39.045c0,2.955,0.674,5.048,2.022,6.279
				c1.349,1.232,3.664,1.882,6.947,1.953V-784.98z M584.691-851.674c0,1.408-0.548,2.595-1.642,3.562
				c-1.095,0.968-2.424,1.451-3.987,1.451c-1.564,0-2.883-0.483-3.958-1.451c-1.075-0.967-1.613-2.154-1.613-3.562
				c0-1.372,0.528-2.559,1.583-3.561c1.055-1.003,2.345-1.504,3.869-1.504c1.602,0,2.96,0.484,4.075,1.451
				C584.133-854.32,584.691-853.116,584.691-851.674z"/>
			<radialGradient id="SVGID_8_" cx="624.2055" cy="-809.1199" r="25.88" gradientUnits="userSpaceOnUse">
				<stop  offset="0.3018" style="stop-color:#F2DC8E"/>
				<stop  offset="0.5785" style="stop-color:#DFB900"/>
				<stop  offset="0.8518" style="stop-color:#B38C13"/>
				<stop  offset="0.9797" style="stop-color:#E0BE09"/>
			</radialGradient>
			<path style="fill:url(#SVGID_8_);" d="M650.294-791.312c-5.942,5.242-10.787,7.862-14.539,7.862
				c-3.362,0-5.042-1.689-5.042-5.065v-7.809c-9.302,8.583-16.63,12.875-21.984,12.875c-3.088,0-5.649-1.09-7.681-3.271
				c-1.955-2.075-2.931-4.519-2.931-7.334c0-7.632,10.865-15.864,32.596-24.693v-6.332c0-2.005-0.655-3.623-1.964-4.854
				c-1.31-1.231-3.078-1.846-5.305-1.846c-4.417,0-8.148,2.023-11.197,6.068c-2.502,3.377-4.008,7.247-4.515,11.608h-3.927v-12.663
				c8.989-5.347,17.45-8.02,25.385-8.02c3.79,0,6.478,0.757,8.061,2.269c1.582,1.513,2.374,3.993,2.374,7.44v32.977
				c0,1.583,0.801,2.375,2.404,2.375c1.563,0,4.317-1.618,8.266-4.854V-791.312z M631.357-814.475
				c-5.628,1.055-10.728,2.867-15.301,5.435c-6.019,3.377-9.028,7.194-9.028,11.45c0,2.181,0.752,3.923,2.257,5.224
				c1.505,1.302,3.469,1.952,5.892,1.952c5.628,0,9.908-2.919,12.84-8.759C630.165-803.571,631.28-808.671,631.357-814.475z"/>
		</g>
		<g>
			<radialGradient id="SVGID_9_" cx="218.4999" cy="-762.8207" r="12.5057" gradientUnits="userSpaceOnUse">
				<stop  offset="0.3018" style="stop-color:#F2DC8E"/>
				<stop  offset="0.5785" style="stop-color:#DFB900"/>
				<stop  offset="0.8518" style="stop-color:#B38C13"/>
				<stop  offset="0.9797" style="stop-color:#E0BE09"/>
			</radialGradient>
			<path style="fill:url(#SVGID_9_);" d="M228.605-768.997h-1.755c0-2.325-0.772-3.993-2.316-5.002
				c-1.333-0.878-3.356-1.316-6.07-1.316h-1.853c-0.179,1.594-0.268,3.028-0.268,4.301c0,2.647,0.463,4.557,1.39,5.727
				c1.105,1.404,3.047,2.106,5.827,2.106h2.023v1.514l-8.972,0.175v8.645c0,2.253,1.235,3.416,3.706,3.489v1.054h-11.921v-1.054
				c1.447-0.014,2.425-0.27,2.938-0.768c0.511-0.497,0.767-1.404,0.767-2.721v-19.001c0-1.316-0.257-2.216-0.767-2.699
				c-0.513-0.483-1.492-0.738-2.938-0.768v-1.053h18.455c0.374,0,0.601-0.322,0.683-0.966h1.073V-768.997z"/>
			<radialGradient id="SVGID_10_" cx="240.4291" cy="-758.3227" r="10.9122" gradientUnits="userSpaceOnUse">
				<stop  offset="0.3018" style="stop-color:#F2DC8E"/>
				<stop  offset="0.5785" style="stop-color:#DFB900"/>
				<stop  offset="0.8518" style="stop-color:#B38C13"/>
				<stop  offset="0.9797" style="stop-color:#E0BE09"/>
			</radialGradient>
			<path style="fill:url(#SVGID_10_);" d="M251.595-759.453c0,3.13-1.178,5.859-3.535,8.185c-2.422,2.399-5.355,3.598-8.801,3.598
				c-3.104,0-5.567-0.9-7.387-2.699c-1.739-1.726-2.609-4-2.609-6.824c0-3.086,1.162-5.8,3.486-8.14
				c2.422-2.428,5.323-3.642,8.703-3.642c3.137,0,5.623,0.885,7.46,2.655C250.701-764.579,251.595-762.29,251.595-759.453z
				 M248.279-757.017c0-1.755-0.431-3.452-1.292-5.09c-0.894-1.712-2.121-3.043-3.681-3.994c-1.3-0.775-2.609-1.163-3.925-1.163
				c-2.259,0-3.998,0.76-5.217,2.282c-1.073,1.346-1.609,3.072-1.609,5.178c0,2.472,0.837,4.732,2.511,6.78
				c1.82,2.253,4.055,3.379,6.704,3.379c2.064,0,3.698-0.79,4.9-2.369C247.743-753.419,248.279-755.086,248.279-757.017z"/>
			<radialGradient id="SVGID_11_" cx="262.9068" cy="-758.6626" r="9.6887" gradientUnits="userSpaceOnUse">
				<stop  offset="0.3018" style="stop-color:#F2DC8E"/>
				<stop  offset="0.5785" style="stop-color:#DFB900"/>
				<stop  offset="0.8518" style="stop-color:#B38C13"/>
				<stop  offset="0.9797" style="stop-color:#E0BE09"/>
			</radialGradient>
			<path style="fill:url(#SVGID_11_);" d="M271.878-761.888h-1.731c-0.016-2.647-0.87-3.971-2.56-3.971
				c-2.097,0-3.763,1.624-4.998,4.871c-0.959,2.472-1.438,4.871-1.438,7.197c0,1.828,0.406,3.043,1.219,3.642
				c0.731,0.526,2.145,0.789,4.242,0.789v1.054h-12.677v-1.054c1.365-0.029,2.332-0.299,2.901-0.811s0.853-1.383,0.853-2.611
				v-11.388c0-1.287-0.528-1.931-1.585-1.931c-0.439,0-1.162,0.161-2.17,0.483v-1.054l6.412-2.347h1.073v7.131
				c3.072-4.725,5.916-7.087,8.533-7.087c0.536,0,1.178,0.11,1.926,0.329V-761.888z"/>
			<radialGradient id="SVGID_12_" cx="296.3308" cy="-762.338" r="12.295" gradientUnits="userSpaceOnUse">
				<stop  offset="0.3018" style="stop-color:#F2DC8E"/>
				<stop  offset="0.5785" style="stop-color:#DFB900"/>
				<stop  offset="0.8518" style="stop-color:#B38C13"/>
				<stop  offset="0.9797" style="stop-color:#E0BE09"/>
			</radialGradient>
			<path style="fill:url(#SVGID_12_);" d="M305.668-756.491c0,2.458-1.26,4.572-3.779,6.341c-2.34,1.653-4.916,2.479-7.728,2.479
				c-2.129,0-4.518-0.461-7.168-1.382v-7.899h1.731c0,2.018,0.634,3.789,1.902,5.31c1.382,1.668,3.161,2.501,5.339,2.501
				c1.723,0,3.129-0.457,4.218-1.371c1.089-0.914,1.633-2.14,1.633-3.675c0-1.594-0.821-3.086-2.462-4.476
				c-0.666-0.556-2.235-1.572-4.705-3.05c-2.08-1.243-3.624-2.252-4.632-3.028c-0.683-0.527-1.243-1.214-1.682-2.063
				c-0.39-0.731-0.585-1.499-0.585-2.304c0-2.296,1.186-4.227,3.559-5.792c2.145-1.404,4.543-2.107,7.192-2.107
				c1.447,0,3.372,0.373,5.778,1.119v6.889h-1.78c-0.114-1.74-0.691-3.225-1.731-4.454c-1.154-1.375-2.657-2.062-4.51-2.062
				c-1.349,0-2.479,0.366-3.389,1.097c-0.926,0.775-1.39,1.763-1.39,2.962c0,1.492,0.943,2.999,2.828,4.52
				c0.699,0.57,2.324,1.624,4.876,3.159c2.243,1.346,3.706,2.333,4.388,2.962C304.969-759.541,305.668-758.099,305.668-756.491z"/>
			<radialGradient id="SVGID_13_" cx="320.6491" cy="-758.2789" r="11.8311" gradientUnits="userSpaceOnUse">
				<stop  offset="0.3018" style="stop-color:#F2DC8E"/>
				<stop  offset="0.5785" style="stop-color:#DFB900"/>
				<stop  offset="0.8518" style="stop-color:#B38C13"/>
				<stop  offset="0.9797" style="stop-color:#E0BE09"/>
			</radialGradient>
			<path style="fill:url(#SVGID_13_);" d="M333.534-750.018l-6.729,2.414h-1.195v-7.284c-1.772,2.165-3.21,3.716-4.315,4.651
				c-1.999,1.712-3.958,2.567-5.875,2.567c-2.682,0-4.023-1.711-4.023-5.134v-12.002c0-1.272-0.756-1.909-2.267-1.909
				c-0.325,0-0.78,0.044-1.365,0.131v-1.031l8.362-1.339v0.856c-0.683,0.176-1.024,0.68-1.024,1.514v13.582
				c0,1.916,0.805,2.874,2.414,2.874c2.47,0,4.559-1.638,6.265-4.915c1.398-2.706,2.097-5.309,2.097-7.811
				c0-2.603-0.87-3.905-2.609-3.905c-0.309,0-0.772,0.059-1.39,0.175v-1.031l8.484-1.339v0.856
				c-0.715,0.103-1.073,0.607-1.073,1.514v14.109c0,1.36,0.561,2.04,1.682,2.04c0.666,0,1.52-0.219,2.56-0.658V-750.018z"/>
			<radialGradient id="SVGID_14_" cx="347.7345" cy="-754.0001" r="13.7157" gradientUnits="userSpaceOnUse">
				<stop  offset="0.3018" style="stop-color:#F2DC8E"/>
				<stop  offset="0.5785" style="stop-color:#DFB900"/>
				<stop  offset="0.8518" style="stop-color:#B38C13"/>
				<stop  offset="0.9797" style="stop-color:#E0BE09"/>
			</radialGradient>
			<path style="fill:url(#SVGID_14_);" d="M360.009-760.879c0,3.204-1.154,6.151-3.462,8.843c-2.487,2.911-5.461,4.366-8.923,4.366
				c-1.447,0-3.047-0.344-4.803-1.031v5.178c0,1.243,0.284,2.129,0.853,2.655c0.569,0.526,1.544,0.797,2.926,0.812v1.075H335.46
				v-1.075c1.365-0.015,2.324-0.289,2.877-0.823c0.553-0.534,0.829-1.415,0.829-2.644v-20.976c0-1.097-0.479-1.646-1.438-1.646
				c-0.341,0-1.097,0.19-2.267,0.571v-1.097l6.265-2.304h1.097v7.131c1.772-2.194,3.186-3.737,4.242-4.63
				c1.967-1.697,3.901-2.545,5.802-2.545c2.259,0,4.055,0.878,5.388,2.633C359.424-764.835,360.009-762.999,360.009-760.879z
				 M356.328-758.882c0-1.887-0.358-3.518-1.073-4.893c-0.943-1.814-2.34-2.721-4.193-2.721c-2.584,0-4.721,1.528-6.412,4.586
				c-1.398,2.531-2.097,5.076-2.097,7.635c0,0.688,0.089,1.61,0.268,2.765c2.275,1.668,4.291,2.501,6.046,2.501
				c2.438,0,4.356-1.155,5.754-3.466C355.759-754.377,356.328-756.512,356.328-758.882z"/>
			<radialGradient id="SVGID_15_" cx="374.2592" cy="-754.0001" r="13.7157" gradientUnits="userSpaceOnUse">
				<stop  offset="0.3018" style="stop-color:#F2DC8E"/>
				<stop  offset="0.5785" style="stop-color:#DFB900"/>
				<stop  offset="0.8518" style="stop-color:#B38C13"/>
				<stop  offset="0.9797" style="stop-color:#E0BE09"/>
			</radialGradient>
			<path style="fill:url(#SVGID_15_);" d="M386.534-760.879c0,3.204-1.154,6.151-3.462,8.843c-2.487,2.911-5.461,4.366-8.923,4.366
				c-1.447,0-3.047-0.344-4.803-1.031v5.178c0,1.243,0.284,2.129,0.853,2.655c0.569,0.526,1.544,0.797,2.926,0.812v1.075h-11.141
				v-1.075c1.365-0.015,2.324-0.289,2.877-0.823c0.553-0.534,0.829-1.415,0.829-2.644v-20.976c0-1.097-0.479-1.646-1.438-1.646
				c-0.341,0-1.097,0.19-2.267,0.571v-1.097l6.265-2.304h1.097v7.131c1.772-2.194,3.186-3.737,4.242-4.63
				c1.967-1.697,3.901-2.545,5.802-2.545c2.259,0,4.055,0.878,5.388,2.633C385.949-764.835,386.534-762.999,386.534-760.879z
				 M382.853-758.882c0-1.887-0.358-3.518-1.073-4.893c-0.943-1.814-2.34-2.721-4.193-2.721c-2.584,0-4.721,1.528-6.412,4.586
				c-1.398,2.531-2.097,5.076-2.097,7.635c0,0.688,0.089,1.61,0.268,2.765c2.275,1.668,4.291,2.501,6.046,2.501
				c2.438,0,4.356-1.155,5.754-3.466C382.284-754.377,382.853-756.512,382.853-758.882z"/>
			<radialGradient id="SVGID_16_" cx="394.6646" cy="-763.8408" r="11.6753" gradientUnits="userSpaceOnUse">
				<stop  offset="0.3018" style="stop-color:#F2DC8E"/>
				<stop  offset="0.5785" style="stop-color:#DFB900"/>
				<stop  offset="0.8518" style="stop-color:#B38C13"/>
				<stop  offset="0.9797" style="stop-color:#E0BE09"/>
			</radialGradient>
			<path style="fill:url(#SVGID_16_);" d="M400.26-748.306h-11.19v-1.054c1.365-0.029,2.332-0.299,2.901-0.811
				s0.853-1.383,0.853-2.611v-20.866c0-1.346-0.618-2.019-1.853-2.019c-0.52,0-1.154,0.117-1.902,0.351v-1.053l8.508-3.006v0.9
				c-0.699,0.307-1.048,0.841-1.048,1.602v24.092c0,1.228,0.28,2.099,0.842,2.611c0.56,0.512,1.523,0.782,2.888,0.811V-748.306z"/>
			<radialGradient id="SVGID_17_" cx="408.183" cy="-763.2264" r="11.2645" gradientUnits="userSpaceOnUse">
				<stop  offset="0.3018" style="stop-color:#F2DC8E"/>
				<stop  offset="0.5785" style="stop-color:#DFB900"/>
				<stop  offset="0.8518" style="stop-color:#B38C13"/>
				<stop  offset="0.9797" style="stop-color:#E0BE09"/>
			</radialGradient>
			<path style="fill:url(#SVGID_17_);" d="M413.766-748.306H402.6v-1.054c1.365-0.029,2.328-0.299,2.89-0.811
				c0.56-0.512,0.84-1.383,0.84-2.611v-12.002c0-0.922-0.585-1.382-1.755-1.382c-0.423,0-0.886,0.095-1.39,0.285
				c-0.276,0.103-0.471,0.168-0.585,0.197v-1.119l6.241-2.216h1.195v16.237c0,1.228,0.281,2.099,0.841,2.611
				c0.562,0.512,1.524,0.782,2.89,0.811V-748.306z M410.523-776.04c0,0.585-0.228,1.079-0.683,1.481
				c-0.455,0.402-1.008,0.604-1.658,0.604s-1.199-0.201-1.646-0.604c-0.447-0.402-0.67-0.896-0.67-1.481
				c0-0.571,0.219-1.065,0.658-1.481c0.439-0.417,0.975-0.625,1.609-0.625c0.666,0,1.231,0.201,1.695,0.603
				C410.291-777.141,410.523-776.64,410.523-776.04z"/>
			<radialGradient id="SVGID_18_" cx="425.6629" cy="-758.3227" r="10.2822" gradientUnits="userSpaceOnUse">
				<stop  offset="0.3018" style="stop-color:#F2DC8E"/>
				<stop  offset="0.5785" style="stop-color:#DFB900"/>
				<stop  offset="0.8518" style="stop-color:#B38C13"/>
				<stop  offset="0.9797" style="stop-color:#E0BE09"/>
			</radialGradient>
			<path style="fill:url(#SVGID_18_);" d="M435.561-753.814c-3.624,4.096-7.159,6.144-10.605,6.144
				c-2.633,0-4.851-1.031-6.656-3.094c-1.69-1.901-2.535-4.066-2.535-6.495c0-2.896,1.024-5.529,3.072-7.899
				c2.21-2.545,4.884-3.818,8.021-3.818c2.405,0,4.348,0.79,5.827,2.37c1.349,1.477,2.064,3.328,2.145,5.551h-15.725
				c-0.033,0.571-0.049,0.987-0.049,1.251c0,2.34,0.658,4.381,1.975,6.122c1.495,1.975,3.486,2.962,5.973,2.962
				c2.796,0,5.648-1.514,8.557-4.542V-753.814z M430.831-762.151c-0.179-1.506-0.699-2.757-1.56-3.752
				c-1.008-1.126-2.308-1.689-3.901-1.689c-1.577,0-2.942,0.563-4.096,1.689c-1.056,1.039-1.707,2.289-1.95,3.752H430.831z"/>
			<radialGradient id="SVGID_19_" cx="445.9952" cy="-758.3445" r="9.2085" gradientUnits="userSpaceOnUse">
				<stop  offset="0.3018" style="stop-color:#F2DC8E"/>
				<stop  offset="0.5785" style="stop-color:#DFB900"/>
				<stop  offset="0.8518" style="stop-color:#B38C13"/>
				<stop  offset="0.9797" style="stop-color:#E0BE09"/>
			</radialGradient>
			<path style="fill:url(#SVGID_19_);" d="M453.455-754.45c0,1.946-0.967,3.584-2.901,4.915c-1.772,1.243-3.771,1.865-5.997,1.865
				c-1.739,0-3.746-0.439-6.022-1.317v-6.078h1.658c0.114,1.653,0.626,3.028,1.536,4.125c1.04,1.258,2.43,1.887,4.169,1.887
				c1.219,0,2.235-0.337,3.047-1.009c0.813-0.673,1.219-1.55,1.219-2.633s-0.496-2.055-1.487-2.919
				c-0.455-0.395-1.471-1.038-3.047-1.931c-1.967-1.112-3.007-1.704-3.121-1.777c-1.316-0.834-2.181-1.579-2.597-2.238
				c-0.413-0.658-0.621-1.324-0.621-1.997c0-1.712,0.886-3.086,2.657-4.125c1.544-0.892,3.316-1.338,5.315-1.338
				c1.479,0,3.072,0.293,4.778,0.878v5.748h-1.755c-0.016-1.404-0.439-2.618-1.268-3.642c-0.943-1.155-2.162-1.733-3.657-1.733
				c-0.845,0-1.541,0.245-2.085,0.735c-0.544,0.49-0.816,1.115-0.816,1.875c0,0.922,0.504,1.792,1.512,2.611
				c0.439,0.366,1.373,0.951,2.804,1.755c2.617,1.477,4.055,2.318,4.315,2.523C452.667-757.112,453.455-755.84,453.455-754.45z"/>
			<radialGradient id="SVGID_20_" cx="483.8806" cy="-762.338" r="14.9304" gradientUnits="userSpaceOnUse">
				<stop  offset="0.3018" style="stop-color:#F2DC8E"/>
				<stop  offset="0.5785" style="stop-color:#DFB900"/>
				<stop  offset="0.8518" style="stop-color:#B38C13"/>
				<stop  offset="0.9797" style="stop-color:#E0BE09"/>
			</radialGradient>
			<path style="fill:url(#SVGID_20_);" d="M499.069-754.494c-2.665,4.55-4.835,6.824-6.509,6.824c-1.918,0-4.697-2.033-8.338-6.099
				c-1.674,1.902-2.974,3.225-3.901,3.971c-1.755,1.419-3.486,2.129-5.193,2.129c-1.788,0-3.316-0.644-4.583-1.931
				c-1.235-1.229-1.853-2.663-1.853-4.301c0-2.94,2.714-6.275,8.143-10.005c-1.772-3.013-2.657-5.368-2.657-7.065
				c0-1.96,1.162-3.503,3.486-4.629c1.918-0.936,4.071-1.405,6.461-1.405c1.463,0,2.698,0.286,3.706,0.856
				c1.203,0.687,1.804,1.646,1.804,2.874c0,1.185-0.658,2.326-1.975,3.423c-0.618,0.513-1.828,1.281-3.633,2.304
				c-1.203,0.688-2.21,1.294-3.023,1.821c2.308,3.35,4.039,5.807,5.193,7.372c1.512-2.106,2.487-4.564,2.926-7.372h8.728v1.119
				c-4.031,0-7.639,2.407-10.824,7.219c3.283,3.964,5.664,5.946,7.143,5.946c1.008,0,2.3-1.163,3.876-3.489L499.069-754.494z
				 M483.539-754.56c-2.698-3.277-4.77-6.1-6.217-8.469c-2.665,2.487-3.998,4.908-3.998,7.263c0,1.272,0.358,2.362,1.073,3.269
				c0.796,1.024,1.877,1.536,3.242,1.536C479.427-750.961,481.394-752.161,483.539-754.56z M485.587-773.188
				c0-0.819-0.313-1.463-0.939-1.931c-0.626-0.468-1.401-0.702-2.328-0.702c-1.186,0-2.142,0.351-2.864,1.053
				c-0.724,0.702-1.085,1.595-1.085,2.677c0,1.228,0.707,3.05,2.121,5.463c1.674-1.39,2.763-2.355,3.267-2.897
				C484.978-770.84,485.587-772.062,485.587-773.188z"/>
			<radialGradient id="SVGID_21_" cx="518.5845" cy="-762.3378" r="10.7799" gradientUnits="userSpaceOnUse">
				<stop  offset="0.3018" style="stop-color:#F2DC8E"/>
				<stop  offset="0.5785" style="stop-color:#DFB900"/>
				<stop  offset="0.8518" style="stop-color:#B38C13"/>
				<stop  offset="0.9797" style="stop-color:#E0BE09"/>
			</radialGradient>
			<path style="fill:url(#SVGID_21_);" d="M524.545-748.306h-11.922v-1.054c1.447-0.014,2.425-0.27,2.938-0.768
				c0.511-0.497,0.767-1.404,0.767-2.721v-19.001c0-1.316-0.257-2.216-0.767-2.699c-0.513-0.483-1.492-0.738-2.938-0.768v-1.053
				h11.922v1.053c-1.463,0.03-2.446,0.285-2.95,0.768c-0.504,0.483-0.756,1.382-0.756,2.699v19.001c0,2.253,1.235,3.416,3.706,3.489
				V-748.306z"/>
			<radialGradient id="SVGID_22_" cx="546.1575" cy="-758.6626" r="15.2732" gradientUnits="userSpaceOnUse">
				<stop  offset="0.3018" style="stop-color:#F2DC8E"/>
				<stop  offset="0.5785" style="stop-color:#DFB900"/>
				<stop  offset="0.8518" style="stop-color:#B38C13"/>
				<stop  offset="0.9797" style="stop-color:#E0BE09"/>
			</radialGradient>
			<path style="fill:url(#SVGID_22_);" d="M565.112-748.306h-8.484v-1.054c0.699-0.014,1.048-0.358,1.048-1.031v-12.573
				c0-2.355-0.861-3.532-2.584-3.532c-2.34,0-4.25,1.602-5.729,4.805c-1.154,2.531-1.731,5.024-1.731,7.482
				c0,1.595,0.228,2.743,0.683,3.444c0.601,0.907,1.707,1.375,3.316,1.404v1.054h-8.411v-1.054c0.683-0.029,1.024-0.299,1.024-0.811
				v-13.494c0-0.746-0.195-1.375-0.585-1.887c-0.455-0.6-1.073-0.9-1.853-0.9c-2.405,0-4.339,1.602-5.802,4.805
				c-1.138,2.502-1.707,5.011-1.707,7.526c0,1.579,0.219,2.714,0.658,3.401c0.601,0.907,1.698,1.36,3.291,1.36v1.054h-11.044v-1.054
				c1.349-0.029,2.295-0.303,2.84-0.823c0.544-0.519,0.817-1.386,0.817-2.6v-11.498c0-1.214-0.528-1.821-1.585-1.821
				c-0.52,0-1.211,0.161-2.072,0.483v-1.097l6.217-2.238h1.146v6.67c1.755-2.106,3.08-3.547,3.974-4.322
				c1.853-1.595,3.665-2.392,5.437-2.392c2.649,0,3.974,1.704,3.974,5.113c0,0.38-0.008,0.841-0.024,1.382
				c1.837-2.077,3.186-3.474,4.047-4.191c1.869-1.55,3.673-2.325,5.412-2.325c1.235,0,2.219,0.388,2.95,1.163
				c0.699,0.717,1.048,1.646,1.048,2.787v12.287c0,1.228,0.281,2.099,0.841,2.611c0.562,0.512,1.524,0.782,2.89,0.811V-748.306z"/>
			<radialGradient id="SVGID_23_" cx="579.1427" cy="-754.0001" r="13.7157" gradientUnits="userSpaceOnUse">
				<stop  offset="0.3018" style="stop-color:#F2DC8E"/>
				<stop  offset="0.5785" style="stop-color:#DFB900"/>
				<stop  offset="0.8518" style="stop-color:#B38C13"/>
				<stop  offset="0.9797" style="stop-color:#E0BE09"/>
			</radialGradient>
			<path style="fill:url(#SVGID_23_);" d="M591.418-760.879c0,3.204-1.154,6.151-3.462,8.843c-2.487,2.911-5.461,4.366-8.923,4.366
				c-1.446,0-3.047-0.344-4.803-1.031v5.178c0,1.243,0.284,2.129,0.853,2.655c0.569,0.526,1.544,0.797,2.925,0.812v1.075h-11.141
				v-1.075c1.365-0.015,2.324-0.289,2.877-0.823c0.553-0.534,0.829-1.415,0.829-2.644v-20.976c0-1.097-0.479-1.646-1.438-1.646
				c-0.341,0-1.097,0.19-2.267,0.571v-1.097l6.265-2.304h1.097v7.131c1.772-2.194,3.186-3.737,4.242-4.63
				c1.967-1.697,3.901-2.545,5.802-2.545c2.259,0,4.055,0.878,5.388,2.633C590.833-764.835,591.418-762.999,591.418-760.879z
				 M587.736-758.882c0-1.887-0.358-3.518-1.073-4.893c-0.943-1.814-2.34-2.721-4.193-2.721c-2.584,0-4.721,1.528-6.412,4.586
				c-1.398,2.531-2.097,5.076-2.097,7.635c0,0.688,0.089,1.61,0.268,2.765c2.275,1.668,4.291,2.501,6.046,2.501
				c2.438,0,4.356-1.155,5.754-3.466C587.168-754.377,587.736-756.512,587.736-758.882z"/>
			<radialGradient id="SVGID_24_" cx="604.7043" cy="-758.3227" r="10.9122" gradientUnits="userSpaceOnUse">
				<stop  offset="0.3018" style="stop-color:#F2DC8E"/>
				<stop  offset="0.5785" style="stop-color:#DFB900"/>
				<stop  offset="0.8518" style="stop-color:#B38C13"/>
				<stop  offset="0.9797" style="stop-color:#E0BE09"/>
			</radialGradient>
			<path style="fill:url(#SVGID_24_);" d="M615.87-759.453c0,3.13-1.178,5.859-3.535,8.185c-2.422,2.399-5.355,3.598-8.801,3.598
				c-3.104,0-5.567-0.9-7.387-2.699c-1.739-1.726-2.609-4-2.609-6.824c0-3.086,1.162-5.8,3.486-8.14
				c2.422-2.428,5.323-3.642,8.703-3.642c3.137,0,5.624,0.885,7.46,2.655C614.976-764.579,615.87-762.29,615.87-759.453z
				 M612.555-757.017c0-1.755-0.431-3.452-1.292-5.09c-0.894-1.712-2.121-3.043-3.681-3.994c-1.3-0.775-2.609-1.163-3.925-1.163
				c-2.259,0-3.998,0.76-5.217,2.282c-1.073,1.346-1.609,3.072-1.609,5.178c0,2.472,0.837,4.732,2.511,6.78
				c1.82,2.253,4.055,3.379,6.704,3.379c2.064,0,3.698-0.79,4.9-2.369C612.018-753.419,612.555-755.086,612.555-757.017z"/>
			<radialGradient id="SVGID_25_" cx="627.1821" cy="-758.6626" r="9.6887" gradientUnits="userSpaceOnUse">
				<stop  offset="0.3018" style="stop-color:#F2DC8E"/>
				<stop  offset="0.5785" style="stop-color:#DFB900"/>
				<stop  offset="0.8518" style="stop-color:#B38C13"/>
				<stop  offset="0.9797" style="stop-color:#E0BE09"/>
			</radialGradient>
			<path style="fill:url(#SVGID_25_);" d="M636.154-761.888h-1.731c-0.016-2.647-0.87-3.971-2.56-3.971
				c-2.097,0-3.763,1.624-4.998,4.871c-0.959,2.472-1.438,4.871-1.438,7.197c0,1.828,0.406,3.043,1.219,3.642
				c0.731,0.526,2.145,0.789,4.242,0.789v1.054h-12.677v-1.054c1.365-0.029,2.332-0.299,2.901-0.811s0.853-1.383,0.853-2.611
				v-11.388c0-1.287-0.528-1.931-1.585-1.931c-0.439,0-1.162,0.161-2.17,0.483v-1.054l6.412-2.347h1.073v7.131
				c3.072-4.725,5.916-7.087,8.533-7.087c0.536,0,1.178,0.11,1.926,0.329V-761.888z"/>
			<radialGradient id="SVGID_26_" cx="644.15" cy="-761.4932" r="10.8633" gradientUnits="userSpaceOnUse">
				<stop  offset="0.3018" style="stop-color:#F2DC8E"/>
				<stop  offset="0.5785" style="stop-color:#DFB900"/>
				<stop  offset="0.8518" style="stop-color:#B38C13"/>
				<stop  offset="0.9797" style="stop-color:#E0BE09"/>
			</radialGradient>
			<path style="fill:url(#SVGID_26_);" d="M650.854-765.728h-5.973v14.086c0,0.922,0.406,1.383,1.219,1.383
				c0.796,0,1.983-0.585,3.559-1.755c0.179-0.132,0.317-0.227,0.414-0.286v1.273c-2.763,2.238-4.965,3.357-6.607,3.357
				c-1.528,0-2.292-1.061-2.292-3.182v-14.876h-3.73v-0.987c1.43,0,2.446-0.26,3.047-0.779c0.601-0.52,0.902-1.415,0.902-2.688
				v-3.313l4.998-1.821v1.141c-1.024,0.219-1.536,1.258-1.536,3.115c0,2.004,0.536,3.291,1.609,3.862
				c0.585,0.322,1.373,0.483,2.365,0.483h2.023V-765.728z"/>
		</g>
	</g>
</g>
<g>
	
		<radialGradient id="SVGID_27_" cx="562.9163" cy="-890.2408" r="293.9149" fx="443.5513" fy="-1067.2811" gradientUnits="userSpaceOnUse">
		<stop  offset="0.3018" style="stop-color:#F2DC8E"/>
		<stop  offset="0.5785" style="stop-color:#DFB900"/>
		<stop  offset="0.8518" style="stop-color:#B38C13"/>
		<stop  offset="0.9797" style="stop-color:#E0BE09"/>
	</radialGradient>
	<path style="fill:url(#SVGID_27_);" d="M429.625-1247.11L217.305-863.365H385.88l4.617-10.384
		c9.276-20.88,22.456-39.602,39.195-55.684c16.63,16.042,29.763,34.765,39.056,55.684l4.617,10.384h168.579L429.625-1247.11z
		 M429.62-975.023c-14.938-10.77-28.886-18.026-38.729-22.473c6.938-11.914,19.01-28.078,38.725-42.087
		c19.526,13.916,31.64,30.137,38.658,42.125C458.444-993.008,444.517-985.762,429.62-975.023z M457.306-951.413
		c21.919-14.397,39.539-19.732,39.707-19.78l17.39-5.014l-5.616-17.205c-0.655-2.019-16.689-49.837-70.142-82.029l-9.02-5.433
		l-9.016,5.433c-53.298,32.097-69.487,79.995-70.15,82.023l-5.616,17.211l17.39,5.012c0.18,0.055,17.835,5.293,39.791,19.698
		c-15.576,15.683-28.525,33.552-38.528,53.172h-86.89l153.019-276.574l153.019,276.574H495.75
		C485.764-917.914,472.845-935.752,457.306-951.413z"/>
	<path style="fill:#5A5A59;" d="M457.306-951.413c0,0-10.456,4.814-27.614,21.979c0,0,3.66,3.465,4.332,4.137
		C434.023-925.297,441.411-936.982,457.306-951.413z"/>
</g>
<g>
	<g>
		<g>
			<path d="M249.36-159.386l-4.807,21.739h-2.931c-0.039-1.548-0.782-2.322-2.228-2.322h-42.739v-2.533
				c3.518-0.035,5.882-0.641,7.094-1.82c1.211-1.178,1.817-3.368,1.817-6.569v-45.641c0-3.166-0.615-5.337-1.847-6.516
				c-1.231-1.178-3.586-1.802-7.064-1.873v-2.533h41.859c2.54,0,3.849-0.879,3.928-2.638h2.755v20.156h-4.28
				c-0.157-9.99-6.84-14.985-20.05-14.985h-4.456c-0.469,3.835-0.704,7.264-0.704,10.289c0,11.713,5.491,17.57,16.474,17.57h5.745
				v3.693l-21.516,0.528v30.339h6.214c13.132,0,20.656-5.628,22.571-16.884H249.36z"/>
			<path d="M280.783-139.969h-26.91v-2.533c3.283-0.07,5.608-0.721,6.977-1.953c1.368-1.231,2.052-3.324,2.052-6.279v-50.178
				c0-3.235-1.486-4.854-4.456-4.854c-1.251,0-2.776,0.282-4.573,0.844v-2.533l20.461-7.228v2.163
				c-1.681,0.739-2.521,2.023-2.521,3.852v57.934c0,2.955,0.674,5.048,2.023,6.279c1.348,1.232,3.664,1.882,6.947,1.953V-139.969z"
				/>
			<path d="M384.669-139.969h-21.047v-2.533h1.348c0.664,0,0.997-0.58,0.997-1.741c0-0.351-0.079-0.739-0.234-1.161l-7.035-18.362
				h-25.62c-2.697,6.824-4.045,11.908-4.045,15.249c0,1.83,0.645,3.289,1.935,4.38c1.29,1.091,2.95,1.636,4.983,1.636h3.107v2.533
				h-26.265v-2.533c4.416-0.211,8.403-4.414,11.96-12.61l24.037-55.138h3.459l20.754,53.925c1.445,3.799,2.794,6.648,4.045,8.548
				c2.266,3.412,4.807,5.171,7.621,5.276V-139.969z M357.408-166.985l-10.67-28.07l-12.312,28.07H357.408z"/>
			<path d="M430.926-172.63h-4.163c-0.039-6.366-2.091-9.55-6.155-9.55c-5.042,0-9.049,3.905-12.018,11.714
				c-2.307,5.945-3.459,11.714-3.459,17.306c0,4.398,0.976,7.317,2.931,8.759c1.759,1.267,5.159,1.9,10.201,1.9v2.533h-30.486
				v-2.533c3.283-0.07,5.608-0.721,6.977-1.953c1.368-1.231,2.052-3.324,2.052-6.279v-27.384c0-3.095-1.271-4.643-3.811-4.643
				c-1.055,0-2.795,0.388-5.218,1.161v-2.533l15.419-5.646h2.58v17.148c7.387-11.362,14.227-17.043,20.519-17.043
				c1.291,0,2.834,0.264,4.632,0.792V-172.63z"/>
			<path d="M487.91-146.301c-5.942,5.242-10.787,7.862-14.539,7.862c-3.362,0-5.042-1.689-5.042-5.065v-7.809
				c-9.302,8.583-16.63,12.875-21.984,12.875c-3.088,0-5.649-1.09-7.681-3.271c-1.955-2.075-2.931-4.519-2.931-7.334
				c0-7.632,10.865-15.864,32.596-24.693v-6.332c0-2.005-0.655-3.623-1.964-4.854c-1.31-1.231-3.078-1.846-5.305-1.846
				c-4.417,0-8.148,2.023-11.197,6.068c-2.503,3.377-4.007,7.247-4.515,11.608h-3.927v-12.663c8.988-5.347,17.45-8.02,25.385-8.02
				c3.79,0,6.478,0.757,8.061,2.269c1.582,1.513,2.374,3.993,2.374,7.44v32.977c0,1.583,0.8,2.375,2.404,2.375
				c1.563,0,4.317-1.618,8.266-4.854V-146.301z M468.974-169.464c-5.628,1.055-10.728,2.867-15.301,5.435
				c-6.019,3.377-9.028,7.194-9.028,11.45c0,2.181,0.752,3.923,2.257,5.224c1.505,1.302,3.468,1.952,5.892,1.952
				c5.628,0,9.908-2.919,12.84-8.759C467.781-158.56,468.895-163.66,468.974-169.464z"/>
			<path d="M547.651-170.731c0,4.468-1.056,8.9-3.167,13.297c-2.111,4.398-4.983,8.056-8.617,10.975
				c-3.283,2.638-6.566,4.415-9.849,5.329c-2.776,0.774-6.606,1.161-11.491,1.161h-5.394c-3.088,0-5.159,0.088-6.214,0.264
				c-2.345,0.458-3.968,1.478-4.867,3.061h-3.927c2.228-3.623,3.342-7.791,3.342-12.505v-51.972c0-3.095-1.311-4.643-3.929-4.643
				c-1.212,0-2.872,0.405-4.983,1.213v-2.585l19.522-7.281v2.163c-1.095,0.563-1.642,1.495-1.642,2.797v36.143
				c5.511-5.698,9.106-9.215,10.787-10.553c4.846-3.904,9.497-5.857,13.953-5.857c5.394,0,9.595,2.023,12.604,6.068
				C546.36-180.14,547.651-175.831,547.651-170.731z M538.856-165.349c0-4.502-0.879-8.284-2.638-11.344
				c-2.228-3.94-5.608-5.91-10.142-5.91c-6.176,0-11.277,3.219-15.302,9.655c-3.4,5.453-5.1,11.169-5.1,17.148
				c0,2.252,0.253,4.784,0.762,7.598c4.768,2.638,9.849,3.957,15.243,3.957c6.097,0,10.63-2.286,13.601-6.859
				C537.664-154.761,538.856-159.509,538.856-165.349z"/>
			<path d="M580.187-139.969h-26.85v-2.533c3.283-0.07,5.598-0.721,6.947-1.953c1.348-1.231,2.022-3.324,2.022-6.279v-28.862
				c0-2.216-1.407-3.324-4.221-3.324c-1.017,0-2.13,0.229-3.341,0.686c-0.665,0.247-1.134,0.405-1.407,0.475v-2.691l15.008-5.329
				h2.872v39.045c0,2.955,0.674,5.048,2.022,6.279c1.349,1.232,3.664,1.882,6.947,1.953V-139.969z M572.39-206.663
				c0,1.408-0.548,2.595-1.642,3.562c-1.095,0.968-2.424,1.451-3.987,1.451c-1.564,0-2.883-0.483-3.958-1.451
				c-1.075-0.967-1.612-2.154-1.612-3.562c0-1.372,0.528-2.559,1.583-3.561c1.055-1.003,2.345-1.504,3.869-1.504
				c1.602,0,2.96,0.484,4.075,1.451C571.833-209.309,572.39-208.105,572.39-206.663z"/>
			<path d="M637.994-146.301c-5.942,5.242-10.787,7.862-14.539,7.862c-3.362,0-5.042-1.689-5.042-5.065v-7.809
				c-9.302,8.583-16.63,12.875-21.984,12.875c-3.088,0-5.649-1.09-7.681-3.271c-1.955-2.075-2.931-4.519-2.931-7.334
				c0-7.632,10.865-15.864,32.596-24.693v-6.332c0-2.005-0.655-3.623-1.964-4.854c-1.31-1.231-3.078-1.846-5.305-1.846
				c-4.417,0-8.148,2.023-11.197,6.068c-2.502,3.377-4.008,7.247-4.515,11.608h-3.927v-12.663c8.989-5.347,17.45-8.02,25.385-8.02
				c3.79,0,6.478,0.757,8.061,2.269c1.582,1.513,2.374,3.993,2.374,7.44v32.977c0,1.583,0.801,2.375,2.404,2.375
				c1.563,0,4.317-1.618,8.266-4.854V-146.301z M619.057-169.464c-5.628,1.055-10.728,2.867-15.301,5.435
				c-6.019,3.377-9.028,7.194-9.028,11.45c0,2.181,0.752,3.923,2.257,5.224c1.505,1.302,3.469,1.952,5.892,1.952
				c5.628,0,9.908-2.919,12.84-8.759C617.865-158.56,618.979-163.66,619.057-169.464z"/>
		</g>
		<g>
			<path d="M216.305-123.987h-1.755c0-2.325-0.772-3.993-2.316-5.002c-1.333-0.878-3.356-1.316-6.07-1.316h-1.853
				c-0.179,1.595-0.268,3.028-0.268,4.301c0,2.647,0.463,4.557,1.39,5.727c1.105,1.404,3.047,2.106,5.827,2.106h2.023v1.514
				l-8.972,0.175v8.645c0,2.253,1.235,3.416,3.706,3.489v1.054h-11.921v-1.054c1.447-0.014,2.425-0.27,2.938-0.768
				c0.511-0.497,0.767-1.404,0.767-2.721v-19.001c0-1.316-0.257-2.216-0.767-2.699c-0.513-0.483-1.492-0.738-2.938-0.768v-1.053
				h18.455c0.374,0,0.601-0.322,0.683-0.966h1.073V-123.987z"/>
			<path d="M239.295-114.442c0,3.13-1.178,5.859-3.535,8.184c-2.422,2.399-5.355,3.598-8.801,3.598c-3.104,0-5.567-0.9-7.387-2.699
				c-1.739-1.726-2.609-4.001-2.609-6.824c0-3.086,1.162-5.8,3.486-8.14c2.422-2.428,5.323-3.642,8.703-3.642
				c3.137,0,5.623,0.885,7.46,2.655C238.401-119.569,239.295-117.279,239.295-114.442z M235.979-112.006
				c0-1.755-0.431-3.452-1.292-5.09c-0.894-1.712-2.121-3.043-3.681-3.994c-1.3-0.775-2.609-1.163-3.925-1.163
				c-2.259,0-3.998,0.76-5.217,2.282c-1.073,1.346-1.609,3.072-1.609,5.178c0,2.472,0.837,4.732,2.511,6.78
				c1.82,2.253,4.055,3.379,6.704,3.379c2.064,0,3.698-0.79,4.9-2.369C235.443-108.408,235.979-110.075,235.979-112.006z"/>
			<path d="M259.578-116.877h-1.731c-0.016-2.647-0.87-3.971-2.56-3.971c-2.097,0-3.763,1.624-4.998,4.871
				c-0.959,2.472-1.438,4.871-1.438,7.197c0,1.828,0.406,3.043,1.219,3.642c0.731,0.526,2.145,0.789,4.242,0.789v1.054h-12.677
				v-1.054c1.365-0.029,2.332-0.3,2.901-0.811c0.569-0.512,0.853-1.383,0.853-2.611v-11.388c0-1.287-0.528-1.931-1.585-1.931
				c-0.439,0-1.162,0.161-2.17,0.483v-1.054l6.412-2.347h1.073v7.131c3.072-4.725,5.916-7.087,8.533-7.087
				c0.536,0,1.178,0.11,1.926,0.329V-116.877z"/>
			<path d="M293.368-111.48c0,2.458-1.26,4.572-3.779,6.342c-2.34,1.653-4.917,2.479-7.728,2.479c-2.129,0-4.518-0.461-7.168-1.382
				v-7.899h1.731c0,2.018,0.634,3.789,1.902,5.309c1.382,1.668,3.161,2.501,5.339,2.501c1.723,0,3.129-0.457,4.218-1.371
				c1.089-0.914,1.633-2.14,1.633-3.675c0-1.594-0.821-3.086-2.462-4.476c-0.666-0.556-2.235-1.572-4.705-3.05
				c-2.08-1.243-3.624-2.252-4.632-3.028c-0.683-0.527-1.243-1.214-1.682-2.063c-0.39-0.731-0.585-1.499-0.585-2.304
				c0-2.296,1.186-4.227,3.559-5.792c2.145-1.404,4.543-2.106,7.192-2.106c1.447,0,3.372,0.373,5.778,1.119v6.889h-1.78
				c-0.114-1.74-0.691-3.225-1.731-4.454c-1.154-1.375-2.657-2.062-4.51-2.062c-1.349,0-2.479,0.366-3.389,1.097
				c-0.926,0.775-1.39,1.763-1.39,2.962c0,1.492,0.943,2.999,2.828,4.52c0.699,0.57,2.324,1.624,4.876,3.159
				c2.243,1.346,3.706,2.333,4.388,2.962C292.669-114.53,293.368-113.088,293.368-111.48z"/>
			<path d="M321.233-105.007l-6.729,2.414h-1.195v-7.284c-1.772,2.165-3.21,3.716-4.315,4.651c-1.999,1.712-3.958,2.567-5.875,2.567
				c-2.682,0-4.023-1.711-4.023-5.134v-12.002c0-1.272-0.756-1.909-2.267-1.909c-0.325,0-0.78,0.044-1.365,0.131v-1.031l8.362-1.339
				v0.856c-0.683,0.176-1.024,0.68-1.024,1.514v13.582c0,1.916,0.805,2.874,2.414,2.874c2.47,0,4.559-1.638,6.265-4.915
				c1.398-2.706,2.097-5.309,2.097-7.811c0-2.603-0.87-3.905-2.609-3.905c-0.309,0-0.772,0.059-1.39,0.175v-1.031l8.484-1.339v0.856
				c-0.715,0.103-1.073,0.607-1.073,1.514v14.109c0,1.36,0.561,2.04,1.682,2.04c0.666,0,1.52-0.219,2.56-0.658V-105.007z"/>
			<path d="M347.709-115.868c0,3.204-1.154,6.151-3.462,8.843c-2.487,2.911-5.461,4.366-8.923,4.366
				c-1.447,0-3.047-0.344-4.803-1.031v5.178c0,1.243,0.284,2.129,0.853,2.655c0.569,0.526,1.544,0.797,2.926,0.812v1.075h-11.141
				v-1.075c1.365-0.015,2.324-0.289,2.877-0.823c0.553-0.534,0.829-1.415,0.829-2.644v-20.976c0-1.097-0.479-1.646-1.438-1.646
				c-0.341,0-1.097,0.19-2.267,0.571v-1.097l6.265-2.304h1.097v7.131c1.772-2.194,3.186-3.737,4.242-4.63
				c1.967-1.697,3.901-2.545,5.802-2.545c2.259,0,4.055,0.878,5.388,2.633C347.124-119.825,347.709-117.989,347.709-115.868z
				 M344.028-113.871c0-1.887-0.358-3.518-1.073-4.893c-0.943-1.814-2.34-2.721-4.193-2.721c-2.584,0-4.721,1.528-6.412,4.586
				c-1.398,2.531-2.097,5.076-2.097,7.635c0,0.688,0.089,1.61,0.268,2.765c2.275,1.668,4.291,2.501,6.046,2.501
				c2.438,0,4.356-1.155,5.754-3.466C343.459-109.366,344.028-111.501,344.028-113.871z"/>
			<path d="M374.234-115.868c0,3.204-1.154,6.151-3.462,8.843c-2.487,2.911-5.461,4.366-8.923,4.366
				c-1.447,0-3.047-0.344-4.803-1.031v5.178c0,1.243,0.284,2.129,0.853,2.655c0.569,0.526,1.544,0.797,2.926,0.812v1.075h-11.141
				v-1.075c1.365-0.015,2.324-0.289,2.877-0.823c0.553-0.534,0.829-1.415,0.829-2.644v-20.976c0-1.097-0.479-1.646-1.438-1.646
				c-0.341,0-1.097,0.19-2.267,0.571v-1.097l6.265-2.304h1.097v7.131c1.772-2.194,3.186-3.737,4.242-4.63
				c1.967-1.697,3.901-2.545,5.802-2.545c2.259,0,4.055,0.878,5.388,2.633C373.649-119.825,374.234-117.989,374.234-115.868z
				 M370.553-113.871c0-1.887-0.358-3.518-1.073-4.893c-0.943-1.814-2.34-2.721-4.193-2.721c-2.584,0-4.721,1.528-6.412,4.586
				c-1.398,2.531-2.097,5.076-2.097,7.635c0,0.688,0.089,1.61,0.268,2.765c2.275,1.668,4.291,2.501,6.046,2.501
				c2.438,0,4.356-1.155,5.754-3.466C369.984-109.366,370.553-111.501,370.553-113.871z"/>
			<path d="M387.959-103.295h-11.19v-1.054c1.365-0.029,2.332-0.3,2.901-0.811c0.569-0.512,0.853-1.383,0.853-2.611v-20.866
				c0-1.346-0.618-2.019-1.853-2.019c-0.52,0-1.154,0.117-1.902,0.351v-1.053l8.508-3.006v0.9c-0.699,0.307-1.048,0.841-1.048,1.601
				v24.092c0,1.228,0.28,2.099,0.842,2.611c0.56,0.512,1.523,0.782,2.888,0.811V-103.295z"/>
			<path d="M401.466-103.295H390.3v-1.054c1.365-0.029,2.328-0.3,2.89-0.811c0.56-0.512,0.841-1.383,0.841-2.611v-12.002
				c0-0.922-0.585-1.382-1.755-1.382c-0.423,0-0.886,0.095-1.39,0.285c-0.276,0.103-0.471,0.168-0.585,0.197v-1.119l6.241-2.216
				h1.195v16.237c0,1.228,0.281,2.099,0.84,2.611c0.562,0.512,1.524,0.782,2.89,0.811V-103.295z M398.223-131.029
				c0,0.585-0.228,1.078-0.683,1.481c-0.455,0.402-1.008,0.604-1.658,0.604s-1.199-0.201-1.646-0.604
				c-0.447-0.402-0.67-0.896-0.67-1.481c0-0.571,0.219-1.065,0.658-1.481c0.439-0.417,0.975-0.625,1.609-0.625
				c0.666,0,1.231,0.201,1.695,0.603C397.991-132.13,398.223-131.629,398.223-131.029z"/>
			<path d="M423.261-108.803c-3.624,4.096-7.159,6.144-10.605,6.144c-2.633,0-4.851-1.031-6.656-3.094
				c-1.69-1.901-2.535-4.066-2.535-6.495c0-2.896,1.024-5.529,3.072-7.899c2.21-2.545,4.884-3.818,8.021-3.818
				c2.405,0,4.348,0.79,5.827,2.37c1.349,1.477,2.064,3.328,2.145,5.551h-15.725c-0.033,0.571-0.049,0.987-0.049,1.251
				c0,2.34,0.658,4.381,1.975,6.122c1.495,1.975,3.486,2.962,5.973,2.962c2.795,0,5.648-1.514,8.557-4.542V-108.803z
				 M418.531-117.141c-0.179-1.506-0.699-2.757-1.56-3.752c-1.008-1.126-2.308-1.689-3.901-1.689c-1.577,0-2.942,0.563-4.096,1.689
				c-1.056,1.039-1.707,2.289-1.95,3.752H418.531z"/>
			<path d="M441.155-109.439c0,1.946-0.967,3.584-2.901,4.915c-1.772,1.243-3.771,1.865-5.997,1.865
				c-1.739,0-3.746-0.439-6.022-1.316v-6.078h1.658c0.114,1.653,0.626,3.028,1.536,4.125c1.04,1.258,2.43,1.887,4.169,1.887
				c1.219,0,2.235-0.337,3.047-1.009s1.219-1.55,1.219-2.633s-0.496-2.055-1.487-2.919c-0.455-0.395-1.471-1.038-3.047-1.931
				c-1.967-1.112-3.007-1.704-3.121-1.777c-1.316-0.834-2.181-1.579-2.597-2.238c-0.413-0.658-0.621-1.324-0.621-1.997
				c0-1.712,0.886-3.086,2.657-4.125c1.544-0.892,3.316-1.338,5.315-1.338c1.479,0,3.072,0.293,4.778,0.878v5.748h-1.755
				c-0.016-1.404-0.439-2.618-1.268-3.642c-0.943-1.155-2.162-1.733-3.657-1.733c-0.845,0-1.541,0.245-2.085,0.735
				c-0.544,0.49-0.816,1.115-0.816,1.875c0,0.922,0.504,1.792,1.512,2.611c0.439,0.366,1.373,0.951,2.804,1.755
				c2.617,1.477,4.055,2.318,4.315,2.523C440.367-112.101,441.155-110.829,441.155-109.439z"/>
			<path d="M486.769-109.483c-2.665,4.55-4.835,6.824-6.509,6.824c-1.918,0-4.697-2.033-8.338-6.099
				c-1.674,1.902-2.974,3.225-3.901,3.971c-1.755,1.419-3.486,2.129-5.193,2.129c-1.788,0-3.316-0.644-4.583-1.931
				c-1.235-1.229-1.853-2.663-1.853-4.301c0-2.94,2.714-6.275,8.143-10.005c-1.772-3.013-2.657-5.368-2.657-7.065
				c0-1.96,1.162-3.503,3.486-4.629c1.918-0.936,4.071-1.405,6.461-1.405c1.463,0,2.698,0.286,3.706,0.856
				c1.203,0.687,1.804,1.646,1.804,2.874c0,1.185-0.658,2.326-1.975,3.423c-0.618,0.513-1.828,1.28-3.633,2.304
				c-1.203,0.688-2.21,1.294-3.023,1.821c2.308,3.35,4.039,5.807,5.193,7.372c1.512-2.106,2.487-4.564,2.926-7.372h8.728v1.119
				c-4.031,0-7.639,2.407-10.824,7.219c3.283,3.964,5.664,5.946,7.143,5.946c1.008,0,2.3-1.163,3.876-3.489L486.769-109.483z
				 M471.239-109.549c-2.698-3.277-4.77-6.1-6.217-8.469c-2.665,2.487-3.998,4.908-3.998,7.263c0,1.272,0.358,2.362,1.073,3.269
				c0.796,1.024,1.877,1.536,3.242,1.536C467.127-105.95,469.094-107.15,471.239-109.549z M473.287-128.177
				c0-0.819-0.313-1.463-0.939-1.931c-0.626-0.468-1.401-0.702-2.328-0.702c-1.186,0-2.142,0.351-2.864,1.053
				c-0.724,0.702-1.085,1.595-1.085,2.677c0,1.228,0.707,3.05,2.121,5.463c1.674-1.39,2.763-2.355,3.267-2.896
				C472.677-125.829,473.287-127.051,473.287-128.177z"/>
			<path d="M512.245-103.295h-11.922v-1.054c1.447-0.014,2.425-0.27,2.938-0.768c0.511-0.497,0.767-1.404,0.767-2.721v-19.001
				c0-1.316-0.257-2.216-0.767-2.699c-0.513-0.483-1.492-0.738-2.938-0.768v-1.053h11.922v1.053c-1.463,0.03-2.446,0.285-2.95,0.768
				s-0.756,1.382-0.756,2.699v19.001c0,2.253,1.235,3.416,3.706,3.489V-103.295z"/>
			<path d="M552.812-103.295h-8.484v-1.054c0.699-0.014,1.048-0.358,1.048-1.031v-12.573c0-2.355-0.861-3.532-2.584-3.532
				c-2.34,0-4.25,1.601-5.729,4.805c-1.154,2.531-1.731,5.024-1.731,7.482c0,1.595,0.228,2.743,0.683,3.444
				c0.601,0.907,1.707,1.375,3.316,1.404v1.054h-8.411v-1.054c0.683-0.029,1.024-0.3,1.024-0.811v-13.494
				c0-0.746-0.195-1.375-0.585-1.887c-0.455-0.6-1.073-0.9-1.853-0.9c-2.405,0-4.339,1.602-5.802,4.805
				c-1.138,2.502-1.707,5.011-1.707,7.526c0,1.579,0.219,2.714,0.658,3.401c0.601,0.907,1.698,1.36,3.291,1.36v1.054h-11.044v-1.054
				c1.349-0.029,2.295-0.303,2.84-0.823c0.544-0.519,0.817-1.386,0.817-2.6v-11.498c0-1.214-0.528-1.821-1.585-1.821
				c-0.52,0-1.211,0.161-2.072,0.483v-1.097l6.217-2.238h1.146v6.67c1.755-2.106,3.08-3.547,3.974-4.322
				c1.853-1.595,3.665-2.392,5.437-2.392c2.649,0,3.974,1.704,3.974,5.113c0,0.38-0.008,0.841-0.024,1.382
				c1.837-2.077,3.186-3.474,4.047-4.191c1.869-1.55,3.673-2.325,5.412-2.325c1.235,0,2.219,0.388,2.95,1.163
				c0.699,0.717,1.048,1.646,1.048,2.787v12.287c0,1.228,0.281,2.099,0.84,2.611c0.562,0.512,1.524,0.782,2.89,0.811V-103.295z"/>
			<path d="M579.117-115.868c0,3.204-1.154,6.151-3.462,8.843c-2.487,2.911-5.461,4.366-8.923,4.366
				c-1.446,0-3.047-0.344-4.803-1.031v5.178c0,1.243,0.284,2.129,0.853,2.655c0.569,0.526,1.544,0.797,2.926,0.812v1.075h-11.141
				v-1.075c1.365-0.015,2.324-0.289,2.877-0.823c0.553-0.534,0.829-1.415,0.829-2.644v-20.976c0-1.097-0.479-1.646-1.438-1.646
				c-0.341,0-1.097,0.19-2.267,0.571v-1.097l6.266-2.304h1.097v7.131c1.772-2.194,3.186-3.737,4.242-4.63
				c1.967-1.697,3.901-2.545,5.802-2.545c2.259,0,4.055,0.878,5.388,2.633C578.532-119.825,579.117-117.989,579.117-115.868z
				 M575.436-113.871c0-1.887-0.358-3.518-1.073-4.893c-0.943-1.814-2.34-2.721-4.193-2.721c-2.584,0-4.721,1.528-6.412,4.586
				c-1.398,2.531-2.097,5.076-2.097,7.635c0,0.688,0.089,1.61,0.268,2.765c2.275,1.668,4.291,2.501,6.046,2.501
				c2.438,0,4.356-1.155,5.754-3.466C574.867-109.366,575.436-111.501,575.436-113.871z"/>
			<path d="M603.57-114.442c0,3.13-1.178,5.859-3.535,8.184c-2.422,2.399-5.355,3.598-8.801,3.598c-3.104,0-5.567-0.9-7.387-2.699
				c-1.739-1.726-2.609-4.001-2.609-6.824c0-3.086,1.162-5.8,3.486-8.14c2.422-2.428,5.323-3.642,8.703-3.642
				c3.137,0,5.623,0.885,7.46,2.655C602.676-119.569,603.57-117.279,603.57-114.442z M600.254-112.006
				c0-1.755-0.431-3.452-1.292-5.09c-0.894-1.712-2.121-3.043-3.681-3.994c-1.3-0.775-2.609-1.163-3.925-1.163
				c-2.259,0-3.998,0.76-5.217,2.282c-1.073,1.346-1.609,3.072-1.609,5.178c0,2.472,0.837,4.732,2.511,6.78
				c1.82,2.253,4.055,3.379,6.704,3.379c2.064,0,3.698-0.79,4.9-2.369C599.718-108.408,600.254-110.075,600.254-112.006z"/>
			<path d="M623.853-116.877h-1.731c-0.016-2.647-0.87-3.971-2.56-3.971c-2.097,0-3.763,1.624-4.998,4.871
				c-0.959,2.472-1.438,4.871-1.438,7.197c0,1.828,0.406,3.043,1.219,3.642c0.731,0.526,2.145,0.789,4.242,0.789v1.054H605.91
				v-1.054c1.365-0.029,2.332-0.3,2.901-0.811c0.569-0.512,0.853-1.383,0.853-2.611v-11.388c0-1.287-0.528-1.931-1.585-1.931
				c-0.439,0-1.162,0.161-2.17,0.483v-1.054l6.412-2.347h1.073v7.131c3.072-4.725,5.916-7.087,8.533-7.087
				c0.536,0,1.178,0.11,1.926,0.329V-116.877z"/>
			<path d="M638.554-120.717h-5.973v14.086c0,0.922,0.406,1.383,1.219,1.383c0.796,0,1.983-0.585,3.559-1.755
				c0.179-0.132,0.317-0.227,0.414-0.286v1.273c-2.763,2.238-4.965,3.357-6.607,3.357c-1.528,0-2.292-1.06-2.292-3.181v-14.876
				h-3.73v-0.987c1.43,0,2.446-0.26,3.047-0.779c0.601-0.52,0.902-1.415,0.902-2.688v-3.313l4.998-1.821v1.141
				c-1.024,0.219-1.536,1.258-1.536,3.115c0,2.004,0.536,3.291,1.609,3.862c0.585,0.322,1.373,0.483,2.365,0.483h2.023V-120.717z"/>
		</g>
	</g>
</g>
<g>
	<path d="M419.324-608.099L207.005-224.354h168.574l4.617-10.384c9.276-20.88,22.456-39.602,39.195-55.684
		c16.63,16.042,29.763,34.765,39.056,55.684l4.617,10.384h168.579L419.324-608.099z M419.32-336.012
		c-14.938-10.77-28.886-18.026-38.729-22.473c6.938-11.914,19.01-28.078,38.725-42.087c19.526,13.916,31.64,30.137,38.658,42.125
		C448.143-353.998,434.217-346.751,419.32-336.012z M447.006-312.402c21.919-14.397,39.539-19.732,39.707-19.78l17.39-5.014
		l-5.616-17.205c-0.655-2.019-16.689-49.837-70.142-82.029l-9.02-5.433l-9.016,5.433c-53.298,32.097-69.487,79.995-70.15,82.023
		l-5.616,17.211l17.39,5.012c0.18,0.055,17.835,5.293,39.791,19.698c-15.576,15.683-28.525,33.552-38.528,53.172h-86.89
		l153.019-276.574l153.019,276.574h-86.894C475.464-278.903,462.544-296.741,447.006-312.402z"/>
	<path d="M447.006-312.402c0,0-10.456,4.814-27.614,21.979c0,0,3.66,3.465,4.332,4.136
		C423.723-286.286,431.11-297.971,447.006-312.402z"/>
</g>
<g>
	<g>
		<g>
			<path style="fill:#FFFFFF;" d="M225.602,476.796l-4.807,21.739h-2.931c-0.039-1.548-0.782-2.322-2.228-2.322h-42.739v-2.533
				c3.518-0.035,5.882-0.641,7.094-1.82c1.211-1.178,1.817-3.368,1.817-6.569V439.65c0-3.166-0.615-5.337-1.847-6.516
				c-1.231-1.178-3.586-1.802-7.064-1.873v-2.533h41.859c2.54,0,3.849-0.879,3.928-2.638h2.755v20.156h-4.28
				c-0.157-9.99-6.84-14.985-20.05-14.985h-4.456c-0.469,3.835-0.704,7.264-0.704,10.289c0,11.713,5.491,17.57,16.474,17.57h5.745
				v3.693l-21.516,0.528v30.339h6.214c13.132,0,20.656-5.628,22.571-16.884H225.602z"/>
			<path style="fill:#FFFFFF;" d="M257.026,496.212h-26.91v-2.533c3.283-0.07,5.608-0.721,6.977-1.953
				c1.368-1.231,2.052-3.324,2.052-6.279V435.27c0-3.235-1.486-4.854-4.456-4.854c-1.251,0-2.776,0.282-4.573,0.844v-2.533
				l20.461-7.228v2.163c-1.681,0.739-2.521,2.023-2.521,3.852v57.934c0,2.955,0.674,5.048,2.023,6.279
				c1.348,1.232,3.664,1.882,6.947,1.953V496.212z"/>
			<path style="fill:#FFFFFF;" d="M360.912,496.212h-21.047v-2.533h1.348c0.664,0,0.997-0.58,0.997-1.741
				c0-0.351-0.079-0.739-0.234-1.161l-7.035-18.362h-25.62c-2.697,6.824-4.045,11.908-4.045,15.249c0,1.83,0.645,3.289,1.935,4.38
				c1.29,1.091,2.95,1.636,4.983,1.636h3.107v2.533h-26.265v-2.533c4.416-0.211,8.403-4.414,11.96-12.611l24.037-55.138h3.459
				l20.754,53.925c1.445,3.799,2.794,6.648,4.045,8.548c2.266,3.412,4.807,5.171,7.621,5.276V496.212z M333.651,469.197
				l-10.67-28.07l-12.312,28.07H333.651z"/>
			<path style="fill:#FFFFFF;" d="M407.168,463.552h-4.163c-0.039-6.366-2.091-9.55-6.155-9.55c-5.042,0-9.049,3.905-12.018,11.714
				c-2.307,5.945-3.459,11.714-3.459,17.306c0,4.398,0.976,7.317,2.931,8.759c1.759,1.267,5.159,1.9,10.201,1.9v2.533h-30.486
				v-2.533c3.283-0.07,5.608-0.721,6.977-1.953c1.368-1.231,2.052-3.324,2.052-6.279v-27.384c0-3.095-1.271-4.643-3.811-4.643
				c-1.055,0-2.795,0.388-5.218,1.161v-2.533l15.419-5.646h2.58v17.148c7.387-11.362,14.226-17.043,20.519-17.043
				c1.291,0,2.834,0.264,4.632,0.792V463.552z"/>
			<path style="fill:#FFFFFF;" d="M464.153,489.881c-5.942,5.242-10.787,7.862-14.539,7.862c-3.362,0-5.042-1.689-5.042-5.065
				v-7.809c-9.302,8.583-16.63,12.875-21.984,12.875c-3.088,0-5.649-1.09-7.681-3.271c-1.955-2.075-2.931-4.519-2.931-7.334
				c0-7.632,10.865-15.864,32.596-24.693v-6.332c0-2.005-0.655-3.623-1.964-4.854c-1.31-1.231-3.078-1.846-5.305-1.846
				c-4.417,0-8.148,2.023-11.197,6.068c-2.503,3.377-4.008,7.247-4.515,11.608h-3.927v-12.663c8.988-5.347,17.45-8.02,25.385-8.02
				c3.79,0,6.478,0.757,8.061,2.269c1.582,1.513,2.374,3.993,2.374,7.44v32.977c0,1.583,0.8,2.375,2.404,2.375
				c1.563,0,4.317-1.618,8.266-4.854V489.881z M445.216,466.718c-5.628,1.055-10.728,2.867-15.301,5.435
				c-6.019,3.377-9.028,7.194-9.028,11.45c0,2.181,0.752,3.923,2.257,5.224c1.505,1.302,3.468,1.952,5.892,1.952
				c5.628,0,9.908-2.919,12.84-8.759C444.024,477.622,445.137,472.522,445.216,466.718z"/>
			<path style="fill:#FFFFFF;" d="M523.894,465.451c0,4.468-1.056,8.9-3.167,13.297c-2.111,4.398-4.983,8.056-8.617,10.975
				c-3.283,2.638-6.566,4.415-9.849,5.329c-2.776,0.774-6.606,1.161-11.491,1.161h-5.394c-3.088,0-5.159,0.088-6.214,0.264
				c-2.345,0.458-3.968,1.478-4.867,3.061h-3.927c2.228-3.623,3.342-7.791,3.342-12.505v-51.972c0-3.095-1.311-4.643-3.929-4.643
				c-1.212,0-2.872,0.405-4.983,1.213v-2.585l19.522-7.281v2.163c-1.095,0.563-1.642,1.495-1.642,2.797v36.143
				c5.511-5.698,9.106-9.215,10.787-10.553c4.846-3.904,9.497-5.857,13.953-5.857c5.394,0,9.595,2.023,12.604,6.068
				C522.603,456.042,523.894,460.351,523.894,465.451z M515.099,470.833c0-4.502-0.879-8.284-2.638-11.344
				c-2.228-3.94-5.608-5.91-10.142-5.91c-6.176,0-11.277,3.219-15.302,9.655c-3.4,5.453-5.1,11.169-5.1,17.148
				c0,2.252,0.253,4.784,0.762,7.598c4.768,2.638,9.849,3.957,15.243,3.957c6.097,0,10.631-2.286,13.601-6.859
				C513.906,481.421,515.099,476.672,515.099,470.833z"/>
			<path style="fill:#FFFFFF;" d="M556.43,496.212h-26.85v-2.533c3.283-0.07,5.598-0.721,6.947-1.953
				c1.348-1.231,2.022-3.324,2.022-6.279v-28.862c0-2.216-1.407-3.324-4.221-3.324c-1.017,0-2.13,0.229-3.341,0.686
				c-0.665,0.247-1.134,0.405-1.407,0.475v-2.691l15.008-5.329h2.872v39.045c0,2.955,0.674,5.048,2.022,6.279
				c1.349,1.232,3.664,1.882,6.947,1.953V496.212z M548.633,429.519c0,1.408-0.548,2.595-1.642,3.562
				c-1.095,0.968-2.424,1.451-3.987,1.451c-1.564,0-2.883-0.483-3.958-1.451c-1.075-0.967-1.613-2.154-1.613-3.562
				c0-1.372,0.528-2.559,1.583-3.561c1.055-1.003,2.345-1.504,3.869-1.504c1.602,0,2.96,0.484,4.075,1.451
				C548.076,426.873,548.633,428.077,548.633,429.519z"/>
			<path style="fill:#FFFFFF;" d="M614.236,489.881c-5.942,5.242-10.787,7.862-14.539,7.862c-3.362,0-5.042-1.689-5.042-5.065
				v-7.809c-9.302,8.583-16.63,12.875-21.984,12.875c-3.088,0-5.649-1.09-7.681-3.271c-1.955-2.075-2.931-4.519-2.931-7.334
				c0-7.632,10.865-15.864,32.596-24.693v-6.332c0-2.005-0.655-3.623-1.964-4.854c-1.31-1.231-3.078-1.846-5.305-1.846
				c-4.417,0-8.148,2.023-11.197,6.068c-2.502,3.377-4.008,7.247-4.515,11.608h-3.927v-12.663c8.989-5.347,17.45-8.02,25.385-8.02
				c3.79,0,6.478,0.757,8.061,2.269c1.582,1.513,2.374,3.993,2.374,7.44v32.977c0,1.583,0.801,2.375,2.404,2.375
				c1.563,0,4.317-1.618,8.266-4.854V489.881z M595.299,466.718c-5.628,1.055-10.728,2.867-15.301,5.435
				c-6.019,3.377-9.028,7.194-9.028,11.45c0,2.181,0.752,3.923,2.257,5.224c1.505,1.302,3.469,1.952,5.892,1.952
				c5.628,0,9.908-2.919,12.84-8.759C594.107,477.622,595.222,472.522,595.299,466.718z"/>
		</g>
		<g>
			<path style="fill:#FFFFFF;" d="M192.547,512.195h-1.755c0-2.325-0.772-3.993-2.316-5.002c-1.333-0.878-3.356-1.316-6.07-1.316
				h-1.853c-0.179,1.595-0.268,3.028-0.268,4.301c0,2.647,0.463,4.557,1.39,5.727c1.105,1.404,3.047,2.106,5.827,2.106h2.023v1.514
				l-8.972,0.175v8.645c0,2.253,1.235,3.416,3.706,3.489v1.054h-11.921v-1.054c1.447-0.014,2.425-0.271,2.938-0.768
				c0.511-0.497,0.767-1.404,0.767-2.721v-19.001c0-1.316-0.257-2.216-0.767-2.699c-0.513-0.483-1.492-0.738-2.938-0.768v-1.053
				h18.455c0.374,0,0.601-0.322,0.683-0.966h1.073V512.195z"/>
			<path style="fill:#FFFFFF;" d="M215.537,521.74c0,3.13-1.178,5.859-3.535,8.184c-2.422,2.399-5.355,3.598-8.801,3.598
				c-3.104,0-5.567-0.9-7.387-2.699c-1.739-1.726-2.609-4-2.609-6.824c0-3.086,1.162-5.8,3.486-8.14
				c2.422-2.428,5.323-3.642,8.703-3.642c3.137,0,5.623,0.885,7.46,2.655C214.643,516.613,215.537,518.903,215.537,521.74z
				 M212.221,524.176c0-1.755-0.431-3.452-1.292-5.09c-0.894-1.712-2.121-3.043-3.681-3.994c-1.3-0.775-2.609-1.163-3.925-1.163
				c-2.259,0-3.998,0.76-5.217,2.282c-1.073,1.346-1.609,3.072-1.609,5.178c0,2.472,0.837,4.732,2.511,6.78
				c1.82,2.253,4.055,3.379,6.704,3.379c2.064,0,3.698-0.79,4.9-2.369C211.685,527.774,212.221,526.107,212.221,524.176z"/>
			<path style="fill:#FFFFFF;" d="M235.82,519.305h-1.731c-0.016-2.647-0.87-3.971-2.56-3.971c-2.097,0-3.763,1.624-4.998,4.871
				c-0.959,2.472-1.438,4.871-1.438,7.197c0,1.828,0.406,3.043,1.219,3.642c0.731,0.526,2.145,0.789,4.242,0.789v1.054h-12.677
				v-1.054c1.365-0.029,2.332-0.299,2.901-0.811c0.569-0.512,0.853-1.383,0.853-2.611v-11.388c0-1.287-0.528-1.931-1.585-1.931
				c-0.439,0-1.162,0.161-2.17,0.483v-1.054l6.412-2.347h1.073v7.131c3.072-4.725,5.916-7.087,8.533-7.087
				c0.536,0,1.178,0.11,1.926,0.329V519.305z"/>
			<path style="fill:#FFFFFF;" d="M269.61,524.702c0,2.458-1.26,4.572-3.779,6.341c-2.34,1.653-4.916,2.479-7.728,2.479
				c-2.129,0-4.518-0.461-7.168-1.382v-7.899h1.731c0,2.018,0.634,3.789,1.902,5.309c1.381,1.668,3.161,2.501,5.339,2.501
				c1.723,0,3.129-0.457,4.218-1.371c1.089-0.914,1.633-2.14,1.633-3.675c0-1.594-0.821-3.086-2.462-4.476
				c-0.666-0.555-2.235-1.572-4.705-3.05c-2.08-1.243-3.624-2.252-4.632-3.028c-0.683-0.527-1.243-1.214-1.682-2.063
				c-0.39-0.731-0.585-1.499-0.585-2.304c0-2.296,1.186-4.227,3.559-5.792c2.145-1.404,4.543-2.107,7.192-2.107
				c1.447,0,3.372,0.373,5.778,1.119v6.889h-1.78c-0.114-1.74-0.691-3.225-1.731-4.454c-1.154-1.375-2.657-2.062-4.51-2.062
				c-1.349,0-2.479,0.366-3.389,1.097c-0.926,0.775-1.39,1.763-1.39,2.962c0,1.492,0.943,2.999,2.828,4.52
				c0.699,0.57,2.324,1.624,4.876,3.159c2.243,1.346,3.706,2.333,4.388,2.962C268.911,521.652,269.61,523.094,269.61,524.702z"/>
			<path style="fill:#FFFFFF;" d="M297.476,531.175l-6.729,2.414h-1.195v-7.284c-1.772,2.165-3.21,3.716-4.315,4.651
				c-1.999,1.712-3.958,2.567-5.875,2.567c-2.682,0-4.023-1.711-4.023-5.134v-12.002c0-1.272-0.756-1.909-2.267-1.909
				c-0.325,0-0.78,0.044-1.365,0.131v-1.031l8.362-1.339v0.856c-0.683,0.176-1.024,0.68-1.024,1.514v13.582
				c0,1.916,0.805,2.874,2.414,2.874c2.47,0,4.559-1.638,6.265-4.915c1.398-2.706,2.097-5.309,2.097-7.811
				c0-2.603-0.87-3.905-2.609-3.905c-0.309,0-0.772,0.059-1.39,0.175v-1.031l8.484-1.339v0.856
				c-0.715,0.103-1.073,0.607-1.073,1.514v14.109c0,1.36,0.561,2.04,1.682,2.04c0.666,0,1.52-0.219,2.56-0.658V531.175z"/>
			<path style="fill:#FFFFFF;" d="M323.952,520.314c0,3.204-1.154,6.151-3.462,8.843c-2.487,2.911-5.461,4.366-8.923,4.366
				c-1.447,0-3.047-0.344-4.803-1.031v5.178c0,1.243,0.284,2.129,0.853,2.655c0.569,0.526,1.544,0.797,2.926,0.812v1.075h-11.141
				v-1.075c1.365-0.015,2.324-0.289,2.877-0.823c0.553-0.534,0.829-1.415,0.829-2.644v-20.976c0-1.097-0.479-1.646-1.438-1.646
				c-0.341,0-1.097,0.19-2.267,0.571v-1.097l6.265-2.304h1.097v7.131c1.772-2.194,3.186-3.737,4.242-4.63
				c1.967-1.697,3.901-2.545,5.802-2.545c2.259,0,4.055,0.878,5.388,2.633C323.367,516.357,323.952,518.193,323.952,520.314z
				 M320.27,522.31c0-1.887-0.358-3.518-1.073-4.893c-0.943-1.814-2.34-2.721-4.193-2.721c-2.584,0-4.721,1.528-6.412,4.586
				c-1.398,2.531-2.097,5.076-2.097,7.635c0,0.688,0.089,1.61,0.268,2.765c2.275,1.668,4.291,2.501,6.046,2.501
				c2.438,0,4.356-1.155,5.754-3.466C319.702,526.816,320.27,524.681,320.27,522.31z"/>
			<path style="fill:#FFFFFF;" d="M350.476,520.314c0,3.204-1.154,6.151-3.462,8.843c-2.487,2.911-5.461,4.366-8.923,4.366
				c-1.447,0-3.047-0.344-4.803-1.031v5.178c0,1.243,0.284,2.129,0.853,2.655c0.569,0.526,1.544,0.797,2.926,0.812v1.075h-11.141
				v-1.075c1.365-0.015,2.324-0.289,2.877-0.823c0.553-0.534,0.829-1.415,0.829-2.644v-20.976c0-1.097-0.479-1.646-1.438-1.646
				c-0.341,0-1.097,0.19-2.267,0.571v-1.097l6.265-2.304h1.097v7.131c1.772-2.194,3.186-3.737,4.242-4.63
				c1.967-1.697,3.901-2.545,5.802-2.545c2.259,0,4.055,0.878,5.388,2.633C349.891,516.357,350.476,518.193,350.476,520.314z
				 M346.795,522.31c0-1.887-0.358-3.518-1.073-4.893c-0.943-1.814-2.34-2.721-4.193-2.721c-2.584,0-4.721,1.528-6.412,4.586
				c-1.398,2.531-2.097,5.076-2.097,7.635c0,0.688,0.089,1.61,0.268,2.765c2.275,1.668,4.291,2.501,6.046,2.501
				c2.438,0,4.356-1.155,5.754-3.466C346.226,526.816,346.795,524.681,346.795,522.31z"/>
			<path style="fill:#FFFFFF;" d="M364.202,532.886h-11.19v-1.054c1.365-0.029,2.332-0.299,2.901-0.811s0.853-1.383,0.853-2.611
				v-20.866c0-1.346-0.618-2.019-1.853-2.019c-0.52,0-1.154,0.117-1.902,0.351v-1.053l8.508-3.006v0.9
				c-0.699,0.307-1.048,0.841-1.048,1.602v24.092c0,1.228,0.28,2.099,0.842,2.611c0.56,0.512,1.523,0.782,2.888,0.811V532.886z"/>
			<path style="fill:#FFFFFF;" d="M377.708,532.886h-11.166v-1.054c1.365-0.029,2.328-0.299,2.89-0.811
				c0.56-0.512,0.84-1.383,0.84-2.611v-12.002c0-0.922-0.585-1.382-1.755-1.382c-0.423,0-0.886,0.095-1.39,0.285
				c-0.276,0.103-0.471,0.168-0.585,0.197v-1.119l6.241-2.216h1.195v16.237c0,1.228,0.281,2.099,0.841,2.611
				c0.562,0.512,1.524,0.782,2.89,0.811V532.886z M374.465,505.153c0,0.585-0.228,1.079-0.683,1.481s-1.008,0.604-1.658,0.604
				s-1.199-0.201-1.646-0.604c-0.447-0.402-0.67-0.896-0.67-1.481c0-0.571,0.219-1.065,0.658-1.481
				c0.439-0.417,0.975-0.625,1.609-0.625c0.666,0,1.231,0.201,1.695,0.603C374.233,504.052,374.465,504.553,374.465,505.153z"/>
			<path style="fill:#FFFFFF;" d="M399.503,527.379c-3.624,4.096-7.159,6.144-10.605,6.144c-2.633,0-4.851-1.031-6.656-3.094
				c-1.69-1.901-2.535-4.066-2.535-6.495c0-2.896,1.024-5.529,3.072-7.899c2.21-2.545,4.884-3.818,8.021-3.818
				c2.405,0,4.348,0.79,5.827,2.37c1.349,1.477,2.064,3.328,2.145,5.551h-15.725c-0.033,0.571-0.049,0.987-0.049,1.251
				c0,2.34,0.658,4.381,1.975,6.122c1.495,1.975,3.486,2.962,5.973,2.962c2.796,0,5.648-1.514,8.557-4.542V527.379z
				 M394.773,519.041c-0.179-1.506-0.699-2.757-1.56-3.752c-1.008-1.126-2.308-1.689-3.901-1.689c-1.577,0-2.942,0.563-4.096,1.689
				c-1.056,1.039-1.707,2.289-1.95,3.752H394.773z"/>
			<path style="fill:#FFFFFF;" d="M417.397,526.743c0,1.946-0.967,3.584-2.901,4.915c-1.772,1.243-3.771,1.865-5.997,1.865
				c-1.739,0-3.746-0.439-6.022-1.316v-6.078h1.658c0.114,1.653,0.626,3.028,1.536,4.125c1.04,1.258,2.43,1.887,4.169,1.887
				c1.219,0,2.235-0.337,3.047-1.009c0.813-0.673,1.219-1.55,1.219-2.633c0-1.083-0.496-2.055-1.487-2.919
				c-0.455-0.395-1.471-1.038-3.047-1.931c-1.967-1.112-3.007-1.704-3.121-1.777c-1.316-0.834-2.181-1.579-2.597-2.238
				c-0.413-0.658-0.621-1.324-0.621-1.997c0-1.712,0.886-3.086,2.657-4.125c1.544-0.892,3.316-1.338,5.315-1.338
				c1.479,0,3.072,0.293,4.778,0.878v5.748h-1.755c-0.016-1.404-0.439-2.618-1.268-3.642c-0.943-1.155-2.162-1.733-3.657-1.733
				c-0.845,0-1.541,0.245-2.085,0.735c-0.544,0.49-0.816,1.115-0.816,1.875c0,0.922,0.504,1.792,1.512,2.612
				c0.439,0.366,1.373,0.951,2.804,1.755c2.617,1.477,4.055,2.318,4.315,2.523C416.609,524.081,417.397,525.353,417.397,526.743z"/>
			<path style="fill:#FFFFFF;" d="M463.011,526.699c-2.665,4.55-4.835,6.824-6.509,6.824c-1.918,0-4.697-2.033-8.338-6.099
				c-1.674,1.902-2.974,3.225-3.901,3.971c-1.755,1.419-3.486,2.129-5.193,2.129c-1.788,0-3.316-0.644-4.583-1.931
				c-1.235-1.229-1.853-2.663-1.853-4.301c0-2.94,2.714-6.275,8.143-10.005c-1.772-3.013-2.657-5.368-2.657-7.065
				c0-1.96,1.162-3.503,3.486-4.629c1.918-0.936,4.071-1.405,6.461-1.405c1.463,0,2.698,0.286,3.706,0.856
				c1.203,0.687,1.804,1.646,1.804,2.874c0,1.185-0.658,2.326-1.975,3.423c-0.618,0.513-1.828,1.28-3.633,2.304
				c-1.203,0.688-2.21,1.294-3.023,1.821c2.308,3.35,4.039,5.807,5.193,7.372c1.512-2.106,2.487-4.564,2.926-7.372h8.728v1.119
				c-4.031,0-7.639,2.407-10.824,7.219c3.283,3.964,5.664,5.946,7.143,5.946c1.008,0,2.3-1.163,3.876-3.489L463.011,526.699z
				 M447.481,526.633c-2.698-3.277-4.77-6.1-6.217-8.469c-2.665,2.487-3.998,4.908-3.998,7.263c0,1.272,0.358,2.362,1.073,3.269
				c0.796,1.024,1.877,1.536,3.242,1.536C443.369,530.231,445.336,529.032,447.481,526.633z M449.529,508.005
				c0-0.819-0.313-1.463-0.939-1.931c-0.626-0.468-1.401-0.702-2.328-0.702c-1.186,0-2.142,0.351-2.864,1.053
				c-0.724,0.702-1.085,1.595-1.085,2.677c0,1.228,0.707,3.05,2.121,5.463c1.674-1.39,2.763-2.355,3.267-2.896
				C448.92,510.352,449.529,509.131,449.529,508.005z"/>
			<path style="fill:#FFFFFF;" d="M488.487,532.886h-11.921v-1.054c1.447-0.014,2.425-0.271,2.938-0.768
				c0.511-0.497,0.767-1.404,0.767-2.721v-19.001c0-1.316-0.257-2.216-0.767-2.699c-0.513-0.483-1.492-0.738-2.938-0.768v-1.053
				h11.921v1.053c-1.463,0.03-2.446,0.285-2.95,0.768c-0.504,0.483-0.756,1.382-0.756,2.699v19.001c0,2.253,1.235,3.416,3.706,3.489
				V532.886z"/>
			<path style="fill:#FFFFFF;" d="M529.055,532.886h-8.484v-1.054c0.699-0.014,1.048-0.358,1.048-1.031v-12.573
				c0-2.355-0.861-3.532-2.584-3.532c-2.34,0-4.25,1.602-5.729,4.805c-1.154,2.531-1.731,5.024-1.731,7.482
				c0,1.595,0.228,2.743,0.683,3.444c0.601,0.907,1.707,1.375,3.316,1.404v1.054h-8.411v-1.054c0.683-0.029,1.024-0.299,1.024-0.811
				v-13.494c0-0.746-0.195-1.375-0.585-1.887c-0.455-0.6-1.073-0.9-1.853-0.9c-2.405,0-4.34,1.602-5.802,4.805
				c-1.138,2.502-1.707,5.011-1.707,7.526c0,1.579,0.219,2.714,0.658,3.401c0.601,0.907,1.698,1.36,3.291,1.36v1.054h-11.044v-1.054
				c1.349-0.029,2.295-0.303,2.84-0.823c0.544-0.519,0.817-1.386,0.817-2.6v-11.498c0-1.214-0.528-1.821-1.585-1.821
				c-0.52,0-1.211,0.161-2.072,0.483v-1.097l6.217-2.238h1.146v6.67c1.755-2.107,3.08-3.547,3.974-4.322
				c1.853-1.595,3.665-2.392,5.437-2.392c2.649,0,3.974,1.704,3.974,5.113c0,0.38-0.008,0.841-0.024,1.382
				c1.837-2.077,3.186-3.474,4.047-4.191c1.869-1.55,3.673-2.325,5.412-2.325c1.235,0,2.219,0.388,2.95,1.163
				c0.699,0.717,1.048,1.646,1.048,2.787v12.287c0,1.228,0.281,2.099,0.841,2.611c0.562,0.512,1.524,0.782,2.89,0.811V532.886z"/>
			<path style="fill:#FFFFFF;" d="M555.36,520.314c0,3.204-1.154,6.151-3.462,8.843c-2.487,2.911-5.461,4.366-8.923,4.366
				c-1.446,0-3.047-0.344-4.803-1.031v5.178c0,1.243,0.284,2.129,0.853,2.655c0.569,0.526,1.544,0.797,2.925,0.812v1.075H530.81
				v-1.075c1.365-0.015,2.324-0.289,2.877-0.823c0.553-0.534,0.829-1.415,0.829-2.644v-20.976c0-1.097-0.479-1.646-1.438-1.646
				c-0.341,0-1.097,0.19-2.267,0.571v-1.097l6.265-2.304h1.097v7.131c1.772-2.194,3.186-3.737,4.242-4.63
				c1.967-1.697,3.901-2.545,5.802-2.545c2.259,0,4.055,0.878,5.388,2.633C554.775,516.357,555.36,518.193,555.36,520.314z
				 M551.679,522.31c0-1.887-0.358-3.518-1.073-4.893c-0.943-1.814-2.34-2.721-4.193-2.721c-2.584,0-4.721,1.528-6.412,4.586
				c-1.398,2.531-2.097,5.076-2.097,7.635c0,0.688,0.089,1.61,0.268,2.765c2.275,1.668,4.291,2.501,6.046,2.501
				c2.438,0,4.356-1.155,5.754-3.466C551.11,526.816,551.679,524.681,551.679,522.31z"/>
			<path style="fill:#FFFFFF;" d="M579.812,521.74c0,3.13-1.178,5.859-3.535,8.184c-2.422,2.399-5.355,3.598-8.801,3.598
				c-3.104,0-5.567-0.9-7.387-2.699c-1.739-1.726-2.609-4-2.609-6.824c0-3.086,1.162-5.8,3.486-8.14
				c2.422-2.428,5.323-3.642,8.703-3.642c3.137,0,5.624,0.885,7.46,2.655C578.918,516.613,579.812,518.903,579.812,521.74z
				 M576.497,524.176c0-1.755-0.431-3.452-1.292-5.09c-0.894-1.712-2.121-3.043-3.681-3.994c-1.3-0.775-2.609-1.163-3.925-1.163
				c-2.259,0-3.998,0.76-5.217,2.282c-1.073,1.346-1.609,3.072-1.609,5.178c0,2.472,0.837,4.732,2.511,6.78
				c1.82,2.253,4.055,3.379,6.704,3.379c2.064,0,3.698-0.79,4.9-2.369C575.96,527.774,576.497,526.107,576.497,524.176z"/>
			<path style="fill:#FFFFFF;" d="M600.096,519.305h-1.731c-0.016-2.647-0.87-3.971-2.56-3.971c-2.097,0-3.763,1.624-4.998,4.871
				c-0.959,2.472-1.438,4.871-1.438,7.197c0,1.828,0.406,3.043,1.219,3.642c0.731,0.526,2.145,0.789,4.242,0.789v1.054h-12.677
				v-1.054c1.365-0.029,2.332-0.299,2.901-0.811s0.853-1.383,0.853-2.611v-11.388c0-1.287-0.528-1.931-1.585-1.931
				c-0.439,0-1.162,0.161-2.17,0.483v-1.054l6.412-2.347h1.073v7.131c3.072-4.725,5.916-7.087,8.533-7.087
				c0.536,0,1.178,0.11,1.926,0.329V519.305z"/>
			<path style="fill:#FFFFFF;" d="M614.797,515.465h-5.973v14.086c0,0.922,0.406,1.383,1.219,1.383c0.796,0,1.983-0.585,3.559-1.755
				c0.179-0.132,0.317-0.227,0.414-0.286v1.273c-2.763,2.238-4.965,3.357-6.607,3.357c-1.528,0-2.292-1.06-2.292-3.181v-14.876
				h-3.73v-0.987c1.43,0,2.446-0.26,3.047-0.779c0.601-0.52,0.902-1.415,0.902-2.688v-3.313l4.998-1.821v1.141
				c-1.024,0.219-1.536,1.258-1.536,3.115c0,2.004,0.536,3.291,1.609,3.862c0.585,0.322,1.373,0.483,2.365,0.483h2.023V515.465z"/>
		</g>
	</g>
</g>
<g>
	<path style="fill:#FFFFFF;" d="M395.567,28.083L183.247,411.828h168.574l4.617-10.384c9.276-20.88,22.456-39.602,39.195-55.684
		c16.63,16.042,29.763,34.765,39.056,55.684l4.617,10.384h168.579L395.567,28.083z M395.562,300.17
		c-14.938-10.77-28.886-18.026-38.729-22.473c6.938-11.914,19.01-28.078,38.725-42.087c19.526,13.916,31.64,30.137,38.658,42.125
		C424.386,282.184,410.459,289.431,395.562,300.17z M423.248,323.78c21.919-14.397,39.539-19.732,39.707-19.78l17.39-5.014
		l-5.616-17.205c-0.655-2.019-16.689-49.837-70.142-82.029l-9.02-5.433l-9.016,5.433c-53.298,32.097-69.487,79.995-70.15,82.023
		l-5.616,17.211l17.39,5.012c0.181,0.055,17.835,5.293,39.791,19.698c-15.576,15.683-28.525,33.552-38.528,53.172h-86.89
		l153.019-276.574l153.019,276.574h-86.894C451.706,357.279,438.787,339.441,423.248,323.78z"/>
	<path style="fill:#FFFFFF;" d="M423.248,323.78c0,0-10.456,4.814-27.614,21.979c0,0,3.66,3.465,4.332,4.136
		C399.965,349.896,407.353,338.211,423.248,323.78z"/>
</g>
</svg>
